<?xml version="1.0" encoding="UTF-8" standalone="no"?>
<svg
   xmlns:dc="http://purl.org/dc/elements/1.1/"
   xmlns:cc="http://creativecommons.org/ns#"
   xmlns:rdf="http://www.w3.org/1999/02/22-rdf-syntax-ns#"
   xmlns:svg="http://www.w3.org/2000/svg"
   xmlns="http://www.w3.org/2000/svg"
   viewBox="0 0 2973.3333 2973.3333"
   height="2973.3333"
   width="2973.3333"
   xml:space="preserve"
   id="svg2"
   version="1.1"><metadata
     id="metadata8"><rdf:RDF><cc:Work
         rdf:about=""><dc:format>image/svg+xml</dc:format><dc:type
           rdf:resource="http://purl.org/dc/dcmitype/StillImage" /></cc:Work></rdf:RDF></metadata><defs
     id="defs6" /><g
     transform="matrix(1.3333333,0,0,-1.3333333,0,2973.3333)"
     id="g10"><g
       transform="scale(0.1)"
       id="g12"><g
         transform="scale(1.3681)"
         id="g14"><path
           id="path16"
           style="fill:#201e1d;fill-opacity:1;fill-rule:nonzero;stroke:none"
           d="M 16300,0 H 0 V 16300 H 16300 V 0" /></g><g
         transform="scale(1.33754)"
         id="g18"><path
           id="path20"
           style="fill:#cf8137;fill-opacity:1;fill-rule:nonzero;stroke:none"
           d="M 16300,372.401 H 372.365 V 16300 H 16300 V 372.401" /></g><g
         transform="scale(1.31882)"
         id="g22"><path
           id="path24"
           style="fill:#fbc78e;fill-opacity:1;fill-rule:nonzero;stroke:none"
           d="M 2570.48,16300 V 14338.6 H 609.117 V 16300 H 2570.48" /></g><g
         transform="scale(1.31882)"
         id="g26"><path
           id="path28"
           style="fill:#fbc78e;fill-opacity:1;fill-rule:nonzero;stroke:none"
           d="M 6493.2,16300 V 14338.6 H 4531.84 V 16300 H 6493.2" /></g><g
         transform="scale(1.31882)"
         id="g30"><path
           id="path32"
           style="fill:#fbc78e;fill-opacity:1;fill-rule:nonzero;stroke:none"
           d="M 10415.9,16300 V 14338.6 H 8454.56 V 16300 h 1961.34" /></g><g
         transform="scale(1.31882)"
         id="g34"><path
           id="path36"
           style="fill:#fbc78e;fill-opacity:1;fill-rule:nonzero;stroke:none"
           d="M 14338.6,16300 V 14338.6 H 12377.2 V 16300 h 1961.4" /></g><g
         transform="scale(1.31882)"
         id="g38"><path
           id="path40"
           style="fill:#cf8137;fill-opacity:1;fill-rule:nonzero;stroke:none"
           d="M 4531.84,16300 V 14338.6 H 2570.48 V 16300 h 1961.36" /></g><g
         transform="scale(1.31882)"
         id="g42"><path
           id="path44"
           style="fill:#cf8137;fill-opacity:1;fill-rule:nonzero;stroke:none"
           d="M 8454.56,16300 V 14338.6 H 6493.2 V 16300 h 1961.36" /></g><g
         transform="scale(1.31882)"
         id="g46"><path
           id="path48"
           style="fill:#cf8137;fill-opacity:1;fill-rule:nonzero;stroke:none"
           d="M 12377.2,16300 V 14338.6 H 10415.9 V 16300 h 1961.3" /></g><g
         transform="scale(1.31882)"
         id="g50"><path
           id="path52"
           style="fill:#fbc78e;fill-opacity:1;fill-rule:nonzero;stroke:none"
           d="m 16300,14338.6 v -1961.3 h -1961.4 v 1961.3 H 16300" /></g><g
         transform="scale(1.16012)"
         id="g54"><path
           id="path56"
           style="fill:#cf8137;fill-opacity:1;fill-rule:nonzero;stroke:none"
           d="M 16300,16300 V 14070.3 H 14070.3 V 16300 H 16300" /></g><g
         transform="scale(1.16012)"
         id="g58"><path
           id="path60"
           style="fill:#cf8137;fill-opacity:1;fill-rule:nonzero;stroke:none"
           d="M 11840.7,16300 V 14070.3 H 9611.05 V 16300 h 2229.65" /></g><g
         transform="scale(1.16012)"
         id="g62"><path
           id="path64"
           style="fill:#cf8137;fill-opacity:1;fill-rule:nonzero;stroke:none"
           d="M 7381.4,16300 V 14070.3 H 5151.74 V 16300 H 7381.4" /></g><g
         transform="scale(1.00143)"
         id="g66"><path
           id="path68"
           style="fill:#fbc78e;fill-opacity:1;fill-rule:nonzero;stroke:none"
           d="M 3385.14,16300 V 13717 H 802.164 v 2583 H 3385.14" /></g><g
         transform="scale(1.16012)"
         id="g70"><path
           id="path72"
           style="fill:#cf8137;fill-opacity:1;fill-rule:nonzero;stroke:none"
           d="M 2922.09,16300 V 14070.3 H 692.437 V 16300 H 2922.09" /></g><g
         transform="scale(1.00143)"
         id="g74"><path
           id="path76"
           style="fill:#cf8137;fill-opacity:1;fill-rule:nonzero;stroke:none"
           d="M 5968.11,16300 V 13717 H 3385.14 v 2583 h 2582.97" /></g><g
         transform="scale(1.00143)"
         id="g78"><path
           id="path80"
           style="fill:#cf8137;fill-opacity:1;fill-rule:nonzero;stroke:none"
           d="M 11134.1,16300 V 13717 H 8551.09 v 2583 h 2583.01" /></g><g
         transform="scale(1.00143)"
         id="g82"><path
           id="path84"
           style="fill:#cf8137;fill-opacity:1;fill-rule:nonzero;stroke:none"
           d="m 16300,16300 v -2583 h -2582.9 v 2583 H 16300" /></g><g
         transform="scale(1.31882)"
         id="g86"><path
           id="path88"
           style="fill:#fbc78e;fill-opacity:1;fill-rule:nonzero;stroke:none"
           d="M 16300,10415.9 V 8454.55 H 14338.6 V 10415.9 H 16300" /></g><g
         transform="scale(1.16012)"
         id="g90"><path
           id="path92"
           style="fill:#cf8137;fill-opacity:1;fill-rule:nonzero;stroke:none"
           d="M 16300,11840.7 V 9611.05 H 14070.3 V 11840.7 H 16300" /></g><path
         id="path94"
         style="fill:#cf8137;fill-opacity:1;fill-rule:nonzero;stroke:none"
         d="M 13736.7,13736.7 V 11150 H 11150 v 2586.7 h 2586.7" /><path
         id="path96"
         style="fill:#cf8137;fill-opacity:1;fill-rule:nonzero;stroke:none"
         d="M 8563.33,13736.7 V 11150 H 5976.66 v 2586.7 h 2586.67" /><path
         id="path98"
         style="fill:#fbc78e;fill-opacity:1;fill-rule:nonzero;stroke:none"
         d="M 3389.99,11150 V 8563.3 H 803.313 V 11150 H 3389.99" /><path
         id="path100"
         style="fill:#cf8137;fill-opacity:1;fill-rule:nonzero;stroke:none"
         d="M 3389.99,13736.7 V 11150 H 803.313 v 2586.7 H 3389.99" /><path
         id="path102"
         style="fill:#cf8137;fill-opacity:1;fill-rule:nonzero;stroke:none"
         d="M 5976.66,11150 V 8563.3 H 3389.99 V 11150 h 2586.67" /><path
         id="path104"
         style="fill:#cf8137;fill-opacity:1;fill-rule:nonzero;stroke:none"
         d="M 11150,11150 V 8563.3 H 8563.33 V 11150 H 11150" /><g
         transform="scale(1.00143)"
         id="g106"><path
           id="path108"
           style="fill:#cf8137;fill-opacity:1;fill-rule:nonzero;stroke:none"
           d="M 16300,11134.1 V 8551.08 H 13717.1 V 11134.1 H 16300" /></g><g
         transform="scale(1.31882)"
         id="g110"><path
           id="path112"
           style="fill:#fbc78e;fill-opacity:1;fill-rule:nonzero;stroke:none"
           d="m 16300,6493.17 v -1961.3 h -1961.4 v 1961.3 H 16300" /></g><g
         transform="scale(1.16012)"
         id="g114"><path
           id="path116"
           style="fill:#cf8137;fill-opacity:1;fill-rule:nonzero;stroke:none"
           d="M 16300,7381.37 V 5151.78 H 14070.3 V 7381.37 H 16300" /></g><path
         id="path118"
         style="fill:#cf8137;fill-opacity:1;fill-rule:nonzero;stroke:none"
         d="M 13736.7,8563.3 V 5976.7 H 11150 v 2586.6 h 2586.7" /><path
         id="path120"
         style="fill:#cf8137;fill-opacity:1;fill-rule:nonzero;stroke:none"
         d="M 8563.33,8563.3 V 5976.7 H 5976.66 v 2586.6 h 2586.67" /><path
         id="path122"
         style="fill:#fbc78e;fill-opacity:1;fill-rule:nonzero;stroke:none"
         d="M 3389.99,5976.7 V 3390 H 803.313 V 5976.7 H 3389.99" /><path
         id="path124"
         style="fill:#cf8137;fill-opacity:1;fill-rule:nonzero;stroke:none"
         d="M 3389.99,8563.3 V 5976.7 H 803.313 V 8563.3 H 3389.99" /><path
         id="path126"
         style="fill:#fbc78e;fill-opacity:1;fill-rule:nonzero;stroke:none"
         d="M 5976.66,3390 V 803.301 H 3389.99 V 3390 h 2586.67" /><path
         id="path128"
         style="fill:#cf8137;fill-opacity:1;fill-rule:nonzero;stroke:none"
         d="M 3389.99,3390 V 803.301 H 803.313 V 3390 H 3389.99" /><path
         id="path130"
         style="fill:#cf8137;fill-opacity:1;fill-rule:nonzero;stroke:none"
         d="M 5976.66,5976.7 V 3390 H 3389.99 v 2586.7 h 2586.67" /><path
         id="path132"
         style="fill:#fbc78e;fill-opacity:1;fill-rule:nonzero;stroke:none"
         d="M 11150,3390 V 803.301 H 8563.33 V 3390 H 11150" /><path
         id="path134"
         style="fill:#cf8137;fill-opacity:1;fill-rule:nonzero;stroke:none"
         d="M 8563.33,3390 V 803.301 H 5976.66 V 3390 h 2586.67" /><path
         id="path136"
         style="fill:#cf8137;fill-opacity:1;fill-rule:nonzero;stroke:none"
         d="M 11150,5976.7 V 3390 H 8563.33 V 5976.7 H 11150" /><g
         transform="scale(1.00143)"
         id="g138"><path
           id="path140"
           style="fill:#fbc78e;fill-opacity:1;fill-rule:nonzero;stroke:none"
           d="M 16300,3385.16 V 802.154 H 13717.1 V 3385.16 H 16300" /></g><path
         id="path142"
         style="fill:#cf8137;fill-opacity:1;fill-rule:nonzero;stroke:none"
         d="M 13736.7,3390 V 803.301 H 11150 V 3390 h 2586.7" /><g
         transform="scale(1.00143)"
         id="g144"><path
           id="path146"
           style="fill:#cf8137;fill-opacity:1;fill-rule:nonzero;stroke:none"
           d="M 16300,5968.17 V 3385.16 H 13717.1 V 5968.17 H 16300" /></g><g
         transform="scale(1.31882)"
         id="g148"><path
           id="path150"
           style="fill:#fbc78e;fill-opacity:1;fill-rule:nonzero;stroke:none"
           d="M 16300,2570.49 V 609.108 H 14338.6 V 2570.49 H 16300" /></g><g
         transform="scale(1.16012)"
         id="g152"><path
           id="path154"
           style="fill:#cf8137;fill-opacity:1;fill-rule:nonzero;stroke:none"
           d="M 16300,2922.1 V 692.427 H 14070.3 V 2922.1 H 16300" /></g><g
         transform="scale(1.31882)"
         id="g156"><path
           id="path158"
           style="fill:#cf8137;fill-opacity:1;fill-rule:nonzero;stroke:none"
           d="M 16300,4531.87 V 2570.49 H 14338.6 V 4531.87 H 16300" /></g><g
         transform="scale(1.31882)"
         id="g160"><path
           id="path162"
           style="fill:#cf8137;fill-opacity:1;fill-rule:nonzero;stroke:none"
           d="M 16300,8454.55 V 6493.17 H 14338.6 V 8454.55 H 16300" /></g><g
         transform="scale(1.31882)"
         id="g164"><path
           id="path166"
           style="fill:#cf8137;fill-opacity:1;fill-rule:nonzero;stroke:none"
           d="m 16300,12377.3 v -1961.4 h -1961.4 v 1961.4 H 16300" /></g><g
         transform="scale(1.31882)"
         id="g168"><path
           id="path170"
           style="fill:#cf8137;fill-opacity:1;fill-rule:nonzero;stroke:none"
           d="M 16300,16300 V 14338.6 H 14338.6 V 16300 H 16300" /></g><path
         id="path172"
         style="fill:#fbc78e;fill-opacity:1;fill-rule:nonzero;stroke:none"
         d="M 13736.7,5976.7 V 3390 H 11150 v 2586.7 h 2586.7" /><path
         id="path174"
         style="fill:#fbc78e;fill-opacity:1;fill-rule:nonzero;stroke:none"
         d="M 8563.33,5976.7 V 3390 H 5976.66 v 2586.7 h 2586.67" /><path
         id="path176"
         style="fill:#fbc78e;fill-opacity:1;fill-rule:nonzero;stroke:none"
         d="M 11150,8563.3 V 5976.7 H 8563.33 V 8563.3 H 11150" /><path
         id="path178"
         style="fill:#fbc78e;fill-opacity:1;fill-rule:nonzero;stroke:none"
         d="M 13736.7,11150 V 8563.3 H 11150 V 11150 h 2586.7" /><g
         transform="scale(1.00143)"
         id="g180"><path
           id="path182"
           style="fill:#fbc78e;fill-opacity:1;fill-rule:nonzero;stroke:none"
           d="m 13717.1,16300 v -2583 h -2583 v 2583 h 2583" /></g><g
         transform="scale(1.16012)"
         id="g184"><path
           id="path186"
           style="fill:#fbc78e;fill-opacity:1;fill-rule:nonzero;stroke:none"
           d="M 5151.74,16300 V 14070.3 H 2922.09 V 16300 h 2229.65" /></g><g
         transform="scale(1.16012)"
         id="g188"><path
           id="path190"
           style="fill:#fbc78e;fill-opacity:1;fill-rule:nonzero;stroke:none"
           d="M 14070.3,16300 V 14070.3 H 11840.7 V 16300 h 2229.6" /></g><g
         transform="scale(1.16012)"
         id="g192"><path
           id="path194"
           style="fill:#fbc78e;fill-opacity:1;fill-rule:nonzero;stroke:none"
           d="M 9611.05,16300 V 14070.3 H 7381.4 V 16300 h 2229.65" /></g><g
         transform="scale(1.16012)"
         id="g196"><path
           id="path198"
           style="fill:#fbc78e;fill-opacity:1;fill-rule:nonzero;stroke:none"
           d="m 16300,14070.4 v -2229.7 h -2229.7 v 2229.7 H 16300" /></g><g
         transform="scale(1.16012)"
         id="g200"><path
           id="path202"
           style="fill:#fbc78e;fill-opacity:1;fill-rule:nonzero;stroke:none"
           d="M 16300,9611.05 V 7381.37 H 14070.3 V 9611.05 H 16300" /></g><g
         transform="scale(1.16012)"
         id="g204"><path
           id="path206"
           style="fill:#fbc78e;fill-opacity:1;fill-rule:nonzero;stroke:none"
           d="M 16300,5151.78 V 2922.1 H 14070.3 V 5151.78 H 16300" /></g><g
         transform="scale(1.00143)"
         id="g208"><path
           id="path210"
           style="fill:#fbc78e;fill-opacity:1;fill-rule:nonzero;stroke:none"
           d="m 16300,13717.1 v -2583 h -2582.9 v 2583 H 16300" /></g><g
         transform="scale(1.00143)"
         id="g212"><path
           id="path214"
           style="fill:#fbc78e;fill-opacity:1;fill-rule:nonzero;stroke:none"
           d="M 16300,8551.08 V 5968.17 H 13717.1 V 8551.08 H 16300" /></g><path
         id="path216"
         style="fill:#fbc78e;fill-opacity:1;fill-rule:nonzero;stroke:none"
         d="M 11150,13736.7 V 11150 H 8563.33 v 2586.7 H 11150" /><g
         transform="scale(1.00143)"
         id="g218"><path
           id="path220"
           style="fill:#fbc78e;fill-opacity:1;fill-rule:nonzero;stroke:none"
           d="M 8551.09,16300 V 13717 H 5968.11 v 2583 h 2582.98" /></g><path
         id="path222"
         style="fill:#fbc78e;fill-opacity:1;fill-rule:nonzero;stroke:none"
         d="M 5976.66,13736.7 V 11150 H 3389.99 v 2586.7 h 2586.67" /><path
         id="path224"
         style="fill:#fbc78e;fill-opacity:1;fill-rule:nonzero;stroke:none"
         d="M 8563.33,11150 V 8563.3 H 5976.66 V 11150 h 2586.67" /><path
         id="path226"
         style="fill:#fbc78e;fill-opacity:1;fill-rule:nonzero;stroke:none"
         d="M 5976.66,8563.3 V 5976.7 H 3389.99 v 2586.6 h 2586.67" /><g
         transform="scale(1.13462)"
         id="g228"><path
           id="path230"
           style="fill:#100f0d;fill-opacity:1;fill-rule:nonzero;stroke:none"
           d="m 1296.22,14761.9 c -12.79,0 -23.29,10 -24.05,22.7 -3.87,65.9 3.1,260.2 200.48,387.9 187.93,121.6 203.26,277.8 200.94,340.4 -0.59,15.6 -13.58,27.8 -29.17,27.8 h -67.83 c -20.15,0 -38.42,11.9 -46.6,30.3 l -25.56,57.5 c -9.86,22.2 -0.53,48.2 21.18,59.1 l 118.25,59.2 c 12.68,6.3 14.92,23.2 4.7,33 -58,55.9 -93.36,135.3 -90.82,222.9 4.43,152.9 128.02,279.8 280.77,288 171.74,9.3 313.82,-127.2 313.82,-296.9 0,-84.4 -35.21,-160.6 -91.7,-214.7 -10.04,-9.6 -8.11,-26.1 4.1,-32.7 l 107.34,-58.2 c 20.84,-11.3 29.49,-36.8 19.85,-58.4 l -26.12,-58.8 c -8.19,-18.4 -26.45,-30.3 -46.61,-30.3 h -67.83 c -15.6,0 -28.58,-12.2 -29.16,-27.8 -2.32,-62.6 13.01,-218.8 200.94,-340.4 197.38,-127.7 204.35,-322 200.46,-387.9 -0.74,-12.7 -11.24,-22.7 -24.03,-22.7 H 1296.22" /></g><g
         transform="scale(1.13462)"
         id="g232"><path
           id="path234"
           style="fill:#100f0d;fill-opacity:1;fill-rule:nonzero;stroke:none"
           d="m 3575.99,14761.9 c -12.79,0 -23.28,10 -24.03,22.7 -3.89,65.9 3.08,260.2 200.46,387.9 187.93,121.6 203.26,277.8 200.94,340.4 -0.57,15.6 -13.56,27.8 -29.16,27.8 h -67.83 c -20.16,0 -38.42,11.9 -46.61,30.3 l -25.56,57.5 c -9.85,22.2 -0.53,48.2 21.18,59.1 l 118.25,59.2 c 12.69,6.3 14.93,23.2 4.71,33 -58,55.9 -93.36,135.3 -90.82,222.9 4.43,152.9 128.01,279.8 280.77,288 171.73,9.3 313.82,-127.2 313.82,-296.9 0,-84.4 -35.22,-160.6 -91.71,-214.7 -10.04,-9.6 -8.1,-26.1 4.11,-32.7 l 107.34,-58.2 c 20.83,-11.3 29.48,-36.8 19.85,-58.4 l -26.13,-58.8 c -8.19,-18.4 -26.45,-30.3 -46.6,-30.3 h -67.83 c -15.6,0 -28.59,-12.2 -29.17,-27.8 -2.31,-62.6 13.01,-218.8 200.94,-340.4 197.38,-127.7 204.36,-322 200.48,-387.9 -0.76,-12.7 -11.25,-22.7 -24.05,-22.7 H 3575.99" /></g><g
         transform="scale(1.13462)"
         id="g236"><path
           id="path238"
           style="fill:#100f0d;fill-opacity:1;fill-rule:nonzero;stroke:none"
           d="m 5855.77,14761.9 c -12.79,0 -23.29,10 -24.04,22.7 -3.88,65.9 3.09,260.2 200.48,387.9 187.92,121.6 203.25,277.8 200.93,340.4 -0.58,15.6 -13.57,27.8 -29.17,27.8 h -67.83 c -20.15,0 -38.42,11.9 -46.59,30.3 l -25.56,57.5 c -9.87,22.2 -0.54,48.2 21.17,59.1 l 118.26,59.2 c 12.67,6.3 14.91,23.2 4.7,33 -58.01,55.9 -93.37,135.3 -90.83,222.9 4.43,152.9 128.02,279.8 280.78,288 171.73,9.3 313.82,-127.2 313.82,-296.9 0,-84.4 -35.22,-160.6 -91.72,-214.7 -10.04,-9.6 -8.09,-26.1 4.11,-32.7 l 107.34,-58.2 c 20.84,-11.3 29.48,-36.8 19.86,-58.4 l -26.13,-58.8 c -8.19,-18.4 -26.45,-30.3 -46.61,-30.3 h -67.82 c -15.6,0 -28.59,-12.2 -29.17,-27.8 -2.31,-62.6 13.01,-218.8 200.94,-340.4 197.38,-127.7 204.36,-322 200.47,-387.9 -0.76,-12.7 -11.25,-22.7 -24.04,-22.7 H 5855.77" /></g><g
         transform="scale(1.13462)"
         id="g240"><path
           id="path242"
           style="fill:#100f0d;fill-opacity:1;fill-rule:nonzero;stroke:none"
           d="m 8135.54,14761.9 c -12.79,0 -23.28,10 -24.03,22.7 -3.89,65.9 3.08,260.2 200.47,387.9 187.92,121.6 203.25,277.8 200.93,340.4 -0.57,15.6 -13.56,27.8 -29.16,27.8 h -67.83 c -20.15,0 -38.42,11.9 -46.6,30.3 l -25.56,57.5 c -9.86,22.2 -0.54,48.2 21.17,59.1 l 118.26,59.2 c 12.68,6.3 14.91,23.2 4.71,33 -58.01,55.9 -93.37,135.3 -90.84,222.9 4.44,152.9 128.02,279.8 280.78,288 171.76,9.3 313.83,-127.2 313.83,-296.9 0,-84.4 -35.25,-160.6 -91.75,-214.7 -10.04,-9.6 -8.11,-26.1 4.14,-32.7 l 107.35,-58.2 c 20.81,-11.3 29.44,-36.8 19.83,-58.4 l -26.08,-58.8 c -8.2,-18.4 -26.44,-30.3 -46.63,-30.3 h -67.86 c -15.6,0 -28.56,-12.2 -29.17,-27.8 -2.3,-62.6 13.04,-218.8 200.95,-340.4 197.42,-127.7 204.38,-322 200.5,-387.9 -0.79,-12.7 -11.28,-22.7 -24.06,-22.7 H 8135.54" /></g><g
         transform="scale(1.13462)"
         id="g244"><path
           id="path246"
           style="fill:#100f0d;fill-opacity:1;fill-rule:nonzero;stroke:none"
           d="m 10415.3,14761.9 c -12.8,0 -23.2,10 -24,22.7 -3.9,65.9 3,260.2 200.5,387.9 187.9,121.6 203.2,277.8 200.9,340.4 -0.6,15.6 -13.6,27.8 -29.2,27.8 h -67.8 c -20.2,0 -38.4,11.9 -46.6,30.3 l -25.6,57.5 c -9.8,22.2 -0.5,48.2 21.2,59.1 l 118.2,59.2 c 12.7,6.3 15,23.2 4.8,33 -58,55.9 -93.4,135.3 -90.9,222.9 4.5,152.9 128.1,279.8 280.8,288 171.7,9.3 313.9,-127.2 313.9,-296.9 0,-84.4 -35.3,-160.6 -91.8,-214.7 -10,-9.6 -8.1,-26.1 4.2,-32.7 l 107.3,-58.2 c 20.8,-11.3 29.5,-36.8 19.8,-58.4 l -26.1,-58.8 c -8.2,-18.4 -26.5,-30.3 -46.6,-30.3 h -67.8 c -15.6,0 -28.6,-12.2 -29.2,-27.8 -2.3,-62.6 13,-218.8 200.9,-340.4 197.4,-127.7 204.4,-322 200.6,-387.9 -0.8,-12.7 -11.3,-22.7 -24.1,-22.7 h -1103.4" /></g><g
         transform="scale(1.13462)"
         id="g248"><path
           id="path250"
           style="fill:#100f0d;fill-opacity:1;fill-rule:nonzero;stroke:none"
           d="m 12695.1,14761.9 c -12.8,0 -23.3,10 -24,22.7 -3.9,65.9 3,260.2 200.5,387.9 187.9,121.6 203.2,277.8 200.8,340.4 -0.5,15.6 -13.5,27.8 -29.1,27.8 h -67.8 c -20.2,0 -38.4,11.9 -46.6,30.3 l -25.6,57.5 c -9.9,22.2 -0.5,48.2 21.2,59.1 l 118.2,59.2 c 12.7,6.3 14.9,23.2 4.8,33 -58.1,55.9 -93.4,135.3 -90.9,222.9 4.4,152.9 128,279.8 280.8,288 171.7,9.3 313.8,-127.2 313.8,-296.9 0,-84.4 -35.2,-160.6 -91.7,-214.7 -10,-9.6 -8.1,-26.1 4.1,-32.7 l 107.3,-58.2 c 20.9,-11.3 29.6,-36.8 19.9,-58.4 l -26.1,-58.8 c -8.2,-18.4 -26.5,-30.3 -46.7,-30.3 h -67.7 c -15.6,0 -28.7,-12.2 -29.2,-27.8 -2.3,-62.6 13,-218.8 200.9,-340.4 197.4,-127.7 204.3,-322 200.5,-387.9 -0.7,-12.7 -11.2,-22.7 -24.1,-22.7 h -1103.3" /></g><g
         transform="scale(1.13462)"
         id="g252"><path
           id="path254"
           style="fill:#100f0d;fill-opacity:1;fill-rule:nonzero;stroke:none"
           d="m 14974.8,14761.9 c -12.7,0 -23.2,10 -23.9,22.7 -3.9,65.9 3,260.2 200.4,387.9 187.9,121.6 203.2,277.8 200.9,340.4 -0.5,15.6 -13.5,27.8 -29.1,27.8 h -67.8 c -20.2,0 -38.4,11.9 -46.6,30.3 l -25.6,57.5 c -9.9,22.2 -0.5,48.2 21.2,59.1 l 118.2,59.2 c 12.7,6.3 14.9,23.2 4.7,33 -58,55.9 -93.3,135.3 -90.8,222.9 4.4,152.9 128,279.8 280.7,288 171.8,9.3 313.9,-127.2 313.9,-296.9 0,-84.4 -35.3,-160.6 -91.8,-214.7 -9.9,-9.6 -8,-26.1 4.2,-32.7 l 107.3,-58.2 c 20.8,-11.3 29.5,-36.8 19.9,-58.4 l -26.1,-58.8 c -8.2,-18.4 -26.5,-30.3 -46.7,-30.3 h -67.8 c -15.6,0 -28.6,-12.2 -29.1,-27.8 -2.4,-62.6 13,-218.8 200.9,-340.4 197.4,-127.7 204.3,-322 200.5,-387.9 -0.8,-12.7 -11.3,-22.7 -24.1,-22.7 h -1103.4" /></g><g
         transform="scale(1.27982)"
         id="g256"><path
           id="path258"
           style="fill:#100f0d;fill-opacity:1;fill-rule:nonzero;stroke:none"
           d="m 15297,13087.1 c -11.3,0 -20.6,8.8 -21.3,20.2 -3.4,58.3 2.7,230.6 177.8,343.9 166.6,107.8 180.2,246.2 178.1,301.7 -0.5,13.8 -12,24.7 -25.8,24.7 h -60.2 c -17.8,0 -34.1,10.5 -41.3,26.8 l -22.6,51 c -8.8,19.7 -0.6,42.7 18.7,52.4 l 104.9,52.5 c 11.2,5.6 13.2,20.5 4.1,29.2 -51.4,49.6 -82.7,120 -80.5,197.6 4,135.6 113.5,248.1 248.9,255.4 152.3,8.2 278.3,-112.8 278.3,-263.2 0,-74.9 -31.3,-142.5 -81.4,-190.4 -8.9,-8.5 -7.2,-23.1 3.7,-29 l 95.2,-51.6 c 18.4,-10 26.1,-32.6 17.5,-51.8 l -23.2,-52.1 c -7.2,-16.3 -23.4,-26.8 -41.2,-26.8 h -60.2 c -13.8,0 -25.3,-10.9 -25.8,-24.7 -2.1,-55.5 11.5,-193.9 178.1,-301.7 175,-113.3 181.2,-285.6 177.8,-343.9 -0.7,-11.4 -10,-20.2 -21.4,-20.2 H 15297" /></g><path
         id="path260"
         style="fill:#ffffff;fill-opacity:1;fill-rule:nonzero;stroke:none"
         d="m 1470.71,3815.7 c -14.51,0 -26.42,11.3 -27.28,25.8 -4.4,74.7 3.51,295.3 227.46,440.2 213.23,137.9 230.62,315.1 227.99,386.1 -0.66,17.7 -15.4,31.6 -33.09,31.6 h -76.96 c -22.87,0 -43.59,13.5 -52.88,34.3 l -29,65.3 c -11.18,25.2 -0.6,54.7 24.03,67 l 134.17,67.2 c 14.39,7.2 16.93,26.3 5.34,37.5 -65.82,63.4 -105.93,153.5 -103.05,252.8 5.03,173.5 145.25,317.6 318.56,326.9 194.86,10.5 356.07,-144.3 356.07,-336.9 0,-95.8 -39.95,-182.3 -104.05,-243.7 -11.39,-10.8 -9.2,-29.5 4.66,-37 l 121.79,-66.1 c 23.64,-12.8 33.45,-41.7 22.52,-66.2 l -29.64,-66.8 c -9.29,-20.8 -30.01,-34.3 -52.88,-34.3 h -76.96 c -17.7,0 -32.43,-13.9 -33.09,-31.6 -2.63,-71 14.76,-248.2 227.99,-386.1 223.95,-144.9 231.86,-365.5 227.45,-440.2 -0.85,-14.5 -12.76,-25.8 -27.27,-25.8 H 1470.71" /><path
         id="path262"
         style="fill:none;stroke:#100f0d;stroke-width:48.19879913;stroke-linecap:butt;stroke-linejoin:miter;stroke-miterlimit:10;stroke-dasharray:none;stroke-opacity:1"
         d="m 1470.71,3815.7 c -14.51,0 -26.42,11.3 -27.28,25.8 -4.4,74.7 3.51,295.3 227.46,440.2 213.23,137.9 230.62,315.1 227.99,386.1 -0.66,17.7 -15.4,31.6 -33.09,31.6 h -76.96 c -22.87,0 -43.59,13.5 -52.88,34.3 l -29,65.3 c -11.18,25.2 -0.6,54.7 24.03,67 l 134.17,67.2 c 14.39,7.2 16.93,26.3 5.34,37.5 -65.82,63.4 -105.93,153.5 -103.05,252.8 5.03,173.5 145.25,317.6 318.56,326.9 194.86,10.5 356.07,-144.3 356.07,-336.9 0,-95.8 -39.95,-182.3 -104.05,-243.7 -11.39,-10.8 -9.2,-29.5 4.66,-37 l 121.79,-66.1 c 23.64,-12.8 33.45,-41.7 22.52,-66.2 l -29.64,-66.8 c -9.29,-20.8 -30.01,-34.3 -52.88,-34.3 h -76.96 c -17.7,0 -32.43,-13.9 -33.09,-31.6 -2.63,-71 14.76,-248.2 227.99,-386.1 223.95,-144.9 231.86,-365.5 227.45,-440.2 -0.85,-14.5 -12.76,-25.8 -27.27,-25.8 z" /><path
         id="path264"
         style="fill:#ffffff;fill-opacity:1;fill-rule:nonzero;stroke:none"
         d="m 4057.38,3815.7 c -14.51,0 -26.42,11.3 -27.27,25.8 -4.41,74.7 3.5,295.3 227.45,440.2 213.23,137.9 230.62,315.1 227.99,386.1 -0.65,17.7 -15.39,31.6 -33.09,31.6 h -76.96 c -22.87,0 -43.59,13.5 -52.88,34.3 l -29,65.3 c -11.18,25.2 -0.6,54.7 24.03,67 l 134.17,67.2 c 14.39,7.2 16.93,26.3 5.34,37.5 -65.81,63.4 -105.93,153.5 -103.05,252.8 5.03,173.5 145.25,317.6 318.57,326.9 194.85,10.5 356.07,-144.3 356.07,-336.9 0,-95.8 -39.96,-182.3 -104.06,-243.7 -11.39,-10.8 -9.19,-29.5 4.66,-37 l 121.79,-66.1 c 23.64,-12.8 33.45,-41.7 22.52,-66.2 l -29.64,-66.8 c -9.29,-20.8 -30.01,-34.3 -52.88,-34.3 h -76.96 c -17.69,0 -32.43,-13.9 -33.09,-31.6 -2.63,-71 14.76,-248.2 227.99,-386.1 223.95,-144.9 231.87,-365.5 227.46,-440.2 -0.86,-14.5 -12.76,-25.8 -27.28,-25.8 H 4057.38" /><path
         id="path266"
         style="fill:none;stroke:#100f0d;stroke-width:48.19879913;stroke-linecap:butt;stroke-linejoin:miter;stroke-miterlimit:10;stroke-dasharray:none;stroke-opacity:1"
         d="m 4057.38,3815.7 c -14.51,0 -26.42,11.3 -27.27,25.8 -4.41,74.7 3.5,295.3 227.45,440.2 213.23,137.9 230.62,315.1 227.99,386.1 -0.65,17.7 -15.39,31.6 -33.09,31.6 h -76.96 c -22.87,0 -43.59,13.5 -52.88,34.3 l -29,65.3 c -11.18,25.2 -0.6,54.7 24.03,67 l 134.17,67.2 c 14.39,7.2 16.93,26.3 5.34,37.5 -65.81,63.4 -105.93,153.5 -103.05,252.8 5.03,173.5 145.25,317.6 318.57,326.9 194.85,10.5 356.07,-144.3 356.07,-336.9 0,-95.8 -39.96,-182.3 -104.06,-243.7 -11.39,-10.8 -9.19,-29.5 4.66,-37 l 121.79,-66.1 c 23.64,-12.8 33.45,-41.7 22.52,-66.2 l -29.64,-66.8 c -9.29,-20.8 -30.01,-34.3 -52.88,-34.3 h -76.96 c -17.69,0 -32.43,-13.9 -33.09,-31.6 -2.63,-71 14.76,-248.2 227.99,-386.1 223.95,-144.9 231.87,-365.5 227.46,-440.2 -0.86,-14.5 -12.76,-25.8 -27.28,-25.8 z" /><path
         id="path268"
         style="fill:#ffffff;fill-opacity:1;fill-rule:nonzero;stroke:none"
         d="m 6644.05,3815.7 c -14.51,0 -26.42,11.3 -27.27,25.8 -4.41,74.7 3.5,295.3 227.46,440.2 213.22,137.9 230.61,315.1 227.98,386.1 -0.65,17.7 -15.39,31.6 -33.09,31.6 h -76.96 c -22.87,0 -43.59,13.5 -52.87,34.3 l -29,65.3 c -11.19,25.2 -0.61,54.7 24.02,67 l 134.18,67.2 c 14.38,7.2 16.92,26.3 5.34,37.5 -65.82,63.4 -105.94,153.5 -103.06,252.8 5.03,173.5 145.25,317.6 318.57,326.9 194.85,10.5 356.07,-144.3 356.07,-336.9 0,-95.8 -39.96,-182.3 -104.06,-243.7 -11.39,-10.8 -9.19,-29.5 4.66,-37 l 121.79,-66.1 c 23.64,-12.8 33.45,-41.7 22.53,-66.2 l -29.65,-66.8 c -9.29,-20.8 -30.01,-34.3 -52.88,-34.3 h -76.95 c -17.7,0 -32.44,-13.9 -33.1,-31.6 -2.62,-71 14.76,-248.2 227.99,-386.1 223.95,-144.9 231.87,-365.5 227.46,-440.2 -0.86,-14.5 -12.76,-25.8 -27.28,-25.8 H 6644.05" /><path
         id="path270"
         style="fill:none;stroke:#100f0d;stroke-width:48.19879913;stroke-linecap:butt;stroke-linejoin:miter;stroke-miterlimit:10;stroke-dasharray:none;stroke-opacity:1"
         d="m 6644.05,3815.7 c -14.51,0 -26.42,11.3 -27.27,25.8 -4.41,74.7 3.5,295.3 227.46,440.2 213.22,137.9 230.61,315.1 227.98,386.1 -0.65,17.7 -15.39,31.6 -33.09,31.6 h -76.96 c -22.87,0 -43.59,13.5 -52.87,34.3 l -29,65.3 c -11.19,25.2 -0.61,54.7 24.02,67 l 134.18,67.2 c 14.38,7.2 16.92,26.3 5.34,37.5 -65.82,63.4 -105.94,153.5 -103.06,252.8 5.03,173.5 145.25,317.6 318.57,326.9 194.85,10.5 356.07,-144.3 356.07,-336.9 0,-95.8 -39.96,-182.3 -104.06,-243.7 -11.39,-10.8 -9.19,-29.5 4.66,-37 l 121.79,-66.1 c 23.64,-12.8 33.45,-41.7 22.53,-66.2 l -29.65,-66.8 c -9.29,-20.8 -30.01,-34.3 -52.88,-34.3 h -76.95 c -17.7,0 -32.44,-13.9 -33.1,-31.6 -2.62,-71 14.76,-248.2 227.99,-386.1 223.95,-144.9 231.87,-365.5 227.46,-440.2 -0.86,-14.5 -12.76,-25.8 -27.28,-25.8 z" /><path
         id="path272"
         style="fill:#ffffff;fill-opacity:1;fill-rule:nonzero;stroke:none"
         d="m 9230.72,3815.7 c -14.51,0 -26.42,11.3 -27.27,25.8 -4.41,74.7 3.5,295.3 227.46,440.2 213.22,137.9 230.61,315.1 227.98,386.1 -0.65,17.7 -15.39,31.6 -33.09,31.6 h -76.96 c -22.86,0 -43.59,13.5 -52.87,34.3 l -29,65.3 c -11.19,25.2 -0.61,54.7 24.02,67 l 134.18,67.2 c 14.38,7.2 16.92,26.3 5.34,37.5 -65.82,63.4 -105.94,153.5 -103.06,252.8 5.03,173.5 145.25,317.6 318.57,326.9 194.88,10.5 356.08,-144.3 356.08,-336.9 0,-95.8 -40,-182.3 -104.1,-243.7 -11.4,-10.8 -9.2,-29.5 4.7,-37 l 121.8,-66.1 c 23.6,-12.8 33.4,-41.7 22.5,-66.2 l -29.6,-66.8 c -9.3,-20.8 -30,-34.3 -52.9,-34.3 h -77 c -17.7,0 -32.4,-13.9 -33.1,-31.6 -2.6,-71 14.8,-248.2 228,-386.1 224,-144.9 231.9,-365.5 227.5,-440.2 -0.9,-14.5 -12.8,-25.8 -27.3,-25.8 H 9230.72" /><path
         id="path274"
         style="fill:none;stroke:#100f0d;stroke-width:48.19879913;stroke-linecap:butt;stroke-linejoin:miter;stroke-miterlimit:10;stroke-dasharray:none;stroke-opacity:1"
         d="m 9230.72,3815.7 c -14.51,0 -26.42,11.3 -27.27,25.8 -4.41,74.7 3.5,295.3 227.46,440.2 213.22,137.9 230.61,315.1 227.98,386.1 -0.65,17.7 -15.39,31.6 -33.09,31.6 h -76.96 c -22.86,0 -43.59,13.5 -52.87,34.3 l -29,65.3 c -11.19,25.2 -0.61,54.7 24.02,67 l 134.18,67.2 c 14.38,7.2 16.92,26.3 5.34,37.5 -65.82,63.4 -105.94,153.5 -103.06,252.8 5.03,173.5 145.25,317.6 318.57,326.9 194.88,10.5 356.08,-144.3 356.08,-336.9 0,-95.8 -40,-182.3 -104.1,-243.7 -11.4,-10.8 -9.2,-29.5 4.7,-37 l 121.8,-66.1 c 23.6,-12.8 33.4,-41.7 22.5,-66.2 l -29.6,-66.8 c -9.3,-20.8 -30,-34.3 -52.9,-34.3 h -77 c -17.7,0 -32.4,-13.9 -33.1,-31.6 -2.6,-71 14.8,-248.2 228,-386.1 224,-144.9 231.9,-365.5 227.5,-440.2 -0.9,-14.5 -12.8,-25.8 -27.3,-25.8 z" /><path
         id="path276"
         style="fill:#ffffff;fill-opacity:1;fill-rule:nonzero;stroke:none"
         d="m 11817.4,3815.7 c -14.5,0 -26.4,11.3 -27.3,25.8 -4.4,74.7 3.5,295.3 227.5,440.2 213.2,137.9 230.6,315.1 228,386.1 -0.7,17.7 -15.4,31.6 -33.1,31.6 h -77 c -22.9,0 -43.6,13.5 -52.9,34.3 l -29,65.3 c -11.1,25.2 -0.6,54.7 24.1,67 l 134.1,67.2 c 14.4,7.2 17,26.3 5.4,37.5 -65.8,63.4 -106,153.5 -103.1,252.8 5.1,173.5 145.3,317.6 318.6,326.9 194.8,10.5 356.1,-144.3 356.1,-336.9 0,-95.8 -40,-182.3 -104.1,-243.7 -11.4,-10.8 -9.2,-29.5 4.7,-37 l 121.8,-66.1 c 23.6,-12.8 33.4,-41.7 22.5,-66.2 l -29.7,-66.8 c -9.3,-20.8 -30,-34.3 -52.8,-34.3 h -77 c -17.7,0 -32.4,-13.9 -33.1,-31.6 -2.6,-71 14.8,-248.2 228,-386.1 223.9,-144.9 231.9,-365.5 227.5,-440.2 -0.9,-14.5 -12.8,-25.8 -27.3,-25.8 h -1251.9" /><path
         id="path278"
         style="fill:none;stroke:#100f0d;stroke-width:48.19879913;stroke-linecap:butt;stroke-linejoin:miter;stroke-miterlimit:10;stroke-dasharray:none;stroke-opacity:1"
         d="m 11817.4,3815.7 c -14.5,0 -26.4,11.3 -27.3,25.8 -4.4,74.7 3.5,295.3 227.5,440.2 213.2,137.9 230.6,315.1 228,386.1 -0.7,17.7 -15.4,31.6 -33.1,31.6 h -77 c -22.9,0 -43.6,13.5 -52.9,34.3 l -29,65.3 c -11.1,25.2 -0.6,54.7 24.1,67 l 134.1,67.2 c 14.4,7.2 17,26.3 5.4,37.5 -65.8,63.4 -106,153.5 -103.1,252.8 5.1,173.5 145.3,317.6 318.6,326.9 194.8,10.5 356.1,-144.3 356.1,-336.9 0,-95.8 -40,-182.3 -104.1,-243.7 -11.4,-10.8 -9.2,-29.5 4.7,-37 l 121.8,-66.1 c 23.6,-12.8 33.4,-41.7 22.5,-66.2 l -29.7,-66.8 c -9.3,-20.8 -30,-34.3 -52.8,-34.3 h -77 c -17.7,0 -32.4,-13.9 -33.1,-31.6 -2.6,-71 14.8,-248.2 228,-386.1 223.9,-144.9 231.9,-365.5 227.5,-440.2 -0.9,-14.5 -12.8,-25.8 -27.3,-25.8 z" /><path
         id="path280"
         style="fill:#ffffff;fill-opacity:1;fill-rule:nonzero;stroke:none"
         d="m 14404.1,3815.7 c -14.5,0 -26.5,11.3 -27.3,25.8 -4.4,74.7 3.5,295.3 227.5,440.2 213.2,137.9 230.6,315.1 227.9,386.1 -0.6,17.7 -15.4,31.6 -33.1,31.6 h -76.9 c -22.9,0 -43.6,13.5 -52.9,34.3 l -29,65.3 c -11.2,25.2 -0.6,54.7 24,67 l 134.2,67.2 c 14.4,7.2 16.9,26.3 5.4,37.5 -65.9,63.4 -106,153.5 -103.1,252.8 5,173.5 145.2,317.6 318.6,326.9 194.8,10.5 356,-144.3 356,-336.9 0,-95.8 -39.9,-182.3 -104,-243.7 -11.4,-10.8 -9.2,-29.5 4.6,-37 l 121.8,-66.1 c 23.7,-12.8 33.5,-41.7 22.6,-66.2 l -29.7,-66.8 c -9.3,-20.8 -30,-34.3 -52.9,-34.3 h -76.9 c -17.7,0 -32.5,-13.9 -33.1,-31.6 -2.6,-71 14.7,-248.2 228,-386.1 223.9,-144.9 231.8,-365.5 227.4,-440.2 -0.8,-14.5 -12.7,-25.8 -27.3,-25.8 h -1251.8" /><path
         id="path282"
         style="fill:none;stroke:#100f0d;stroke-width:48.19879913;stroke-linecap:butt;stroke-linejoin:miter;stroke-miterlimit:10;stroke-dasharray:none;stroke-opacity:1"
         d="m 14404.1,3815.7 c -14.5,0 -26.5,11.3 -27.3,25.8 -4.4,74.7 3.5,295.3 227.5,440.2 213.2,137.9 230.6,315.1 227.9,386.1 -0.6,17.7 -15.4,31.6 -33.1,31.6 h -76.9 c -22.9,0 -43.6,13.5 -52.9,34.3 l -29,65.3 c -11.2,25.2 -0.6,54.7 24,67 l 134.2,67.2 c 14.4,7.2 16.9,26.3 5.4,37.5 -65.9,63.4 -106,153.5 -103.1,252.8 5,173.5 145.2,317.6 318.6,326.9 194.8,10.5 356,-144.3 356,-336.9 0,-95.8 -39.9,-182.3 -104,-243.7 -11.4,-10.8 -9.2,-29.5 4.6,-37 l 121.8,-66.1 c 23.7,-12.8 33.5,-41.7 22.6,-66.2 l -29.7,-66.8 c -9.3,-20.8 -30,-34.3 -52.9,-34.3 h -76.9 c -17.7,0 -32.5,-13.9 -33.1,-31.6 -2.6,-71 14.7,-248.2 228,-386.1 223.9,-144.9 231.8,-365.5 227.4,-440.2 -0.8,-14.5 -12.7,-25.8 -27.3,-25.8 z" /><g
         transform="scale(1.12112)"
         id="g284"><path
           id="path286"
           style="fill:#ffffff;fill-opacity:1;fill-rule:nonzero;stroke:none"
           d="m 15155.1,3403.46 c -13,0 -23.6,10.08 -24.3,23.02 -3.9,66.62 3.1,263.39 202.8,392.64 190.2,123 205.7,281.06 203.4,344.39 -0.5,15.78 -13.7,28.18 -29.5,28.18 h -68.6 c -20.4,0 -38.9,12.04 -47.2,30.59 l -25.9,58.25 c -9.9,22.48 -0.5,48.79 21.5,59.76 l 119.7,59.94 c 12.8,6.43 15,23.46 4.7,33.45 -58.7,56.55 -94.5,136.92 -91.9,225.49 4.5,154.75 129.5,283.29 284.1,291.58 173.8,9.37 317.6,-128.71 317.6,-300.5 0,-85.45 -35.6,-162.61 -92.8,-217.37 -10.1,-9.64 -8.1,-26.31 4.2,-33 l 108.6,-58.96 c 21.1,-11.42 29.8,-37.2 20.1,-59.05 l -26.4,-59.59 c -8.3,-18.55 -26.8,-30.59 -47.2,-30.59 h -68.7 c -15.8,0 -28.9,-12.4 -29.4,-28.18 -2.4,-63.33 13.1,-221.39 203.3,-344.39 199.8,-129.25 206.8,-326.02 202.9,-392.64 -0.8,-12.94 -11.4,-23.02 -24.4,-23.02 h -1116.6" /></g><g
         transform="scale(1.12112)"
         id="g288"><path
           id="path290"
           style="fill:none;stroke:#100f0d;stroke-width:42.99150085;stroke-linecap:butt;stroke-linejoin:miter;stroke-miterlimit:10;stroke-dasharray:none;stroke-opacity:1"
           d="m 15155.1,3403.46 c -13,0 -23.6,10.08 -24.3,23.02 -3.9,66.62 3.1,263.39 202.8,392.64 190.2,123 205.7,281.06 203.4,344.39 -0.5,15.78 -13.7,28.18 -29.5,28.18 h -68.6 c -20.4,0 -38.9,12.04 -47.2,30.59 l -25.9,58.25 c -9.9,22.48 -0.5,48.79 21.5,59.76 l 119.7,59.94 c 12.8,6.43 15,23.46 4.7,33.45 -58.7,56.55 -94.5,136.92 -91.9,225.49 4.5,154.75 129.5,283.29 284.1,291.58 173.8,9.37 317.6,-128.71 317.6,-300.5 0,-85.45 -35.6,-162.61 -92.8,-217.37 -10.1,-9.64 -8.1,-26.31 4.2,-33 l 108.6,-58.96 c 21.1,-11.42 29.8,-37.2 20.1,-59.05 l -26.4,-59.59 c -8.3,-18.55 -26.8,-30.59 -47.2,-30.59 h -68.7 c -15.8,0 -28.9,-12.4 -29.4,-28.18 -2.4,-63.33 13.1,-221.39 203.3,-344.39 199.8,-129.25 206.8,-326.02 202.9,-392.64 -0.8,-12.94 -11.4,-23.02 -24.4,-23.02 z" /></g><g
         transform="scale(1.27982)"
         id="g292"><path
           id="path294"
           style="fill:#ffffff;fill-opacity:1;fill-rule:nonzero;stroke:none"
           d="m 15297,2981.44 c -11.3,0 -20.6,8.83 -21.3,20.16 -3.4,58.37 2.7,230.74 177.8,343.96 166.6,107.75 180.2,246.21 178.1,301.68 -0.5,13.83 -12,24.69 -25.8,24.69 h -60.2 c -17.8,0 -34.1,10.55 -41.3,26.8 l -22.6,51.03 c -8.8,19.69 -0.6,42.74 18.7,52.35 l 104.9,52.51 c 11.2,5.62 13.2,20.55 4.1,29.3 -51.4,49.54 -82.7,119.94 -80.5,197.53 4,135.56 113.5,248.16 248.9,255.43 152.3,8.2 278.3,-112.76 278.3,-263.25 0,-74.85 -31.3,-142.44 -81.4,-190.41 -8.9,-8.44 -7.2,-23.05 3.7,-28.92 l 95.2,-51.64 c 18.4,-10 26.1,-32.59 17.5,-51.73 l -23.2,-52.2 c -7.2,-16.25 -23.4,-26.8 -41.2,-26.8 h -60.2 c -13.8,0 -25.3,-10.86 -25.8,-24.69 -2.1,-55.47 11.5,-193.93 178.1,-301.68 175,-113.22 181.2,-285.59 177.8,-343.96 -0.7,-11.33 -10,-20.16 -21.4,-20.16 H 15297" /></g><g
         transform="scale(1.27982)"
         id="g296"><path
           id="path298"
           style="fill:none;stroke:#100f0d;stroke-width:37.66070175;stroke-linecap:butt;stroke-linejoin:miter;stroke-miterlimit:10;stroke-dasharray:none;stroke-opacity:1"
           d="m 15297,2981.44 c -11.3,0 -20.6,8.83 -21.3,20.16 -3.4,58.37 2.7,230.74 177.8,343.96 166.6,107.75 180.2,246.21 178.1,301.68 -0.5,13.83 -12,24.69 -25.8,24.69 h -60.2 c -17.8,0 -34.1,10.55 -41.3,26.8 l -22.6,51.03 c -8.8,19.69 -0.6,42.74 18.7,52.35 l 104.9,52.51 c 11.2,5.62 13.2,20.55 4.1,29.3 -51.4,49.54 -82.7,119.94 -80.5,197.53 4,135.56 113.5,248.16 248.9,255.43 152.3,8.2 278.3,-112.76 278.3,-263.25 0,-74.85 -31.3,-142.44 -81.4,-190.41 -8.9,-8.44 -7.2,-23.05 3.7,-28.92 l 95.2,-51.64 c 18.4,-10 26.1,-32.59 17.5,-51.73 l -23.2,-52.2 c -7.2,-16.25 -23.4,-26.8 -41.2,-26.8 h -60.2 c -13.8,0 -25.3,-10.86 -25.8,-24.69 -2.1,-55.47 11.5,-193.93 178.1,-301.68 175,-113.22 181.2,-285.59 177.8,-343.96 -0.7,-11.33 -10,-20.16 -21.4,-20.16 z" /></g><g
         transform="scale(1.28432)"
         id="g300"><path
           id="path302"
           style="fill:#100f0d;fill-opacity:1;fill-rule:nonzero;stroke:none"
           d="m 16300,14905.2 h -1138.4 v 134.4 c 0,112.3 91.1,203.3 203.4,203.3 h 731.6 c 112.3,0 203.4,-91 203.4,-203.3 v -134.4" /></g><g
         transform="scale(1.27249)"
         id="g304"><path
           id="path306"
           style="fill:#100f0d;fill-opacity:1;fill-rule:nonzero;stroke:none"
           d="m 16300,15264.7 h -846 l 91.4,808 h 663.2 l 91.4,-808" /></g><g
         transform="scale(1.28826)"
         id="g308"><path
           id="path310"
           style="fill:#100f0d;fill-opacity:1;fill-rule:nonzero;stroke:none"
           d="m 15844.8,15763.7 h -324.2 l 23.8,512.2 c 0.6,13.5 11.7,24.1 25.2,24.1 h 226.1 c 13.5,0 24.6,-10.6 25.3,-24.1 l 23.8,-512.2" /></g><g
         transform="scale(1.28614)"
         id="g312"><path
           id="path314"
           style="fill:#100f0d;fill-opacity:1;fill-rule:nonzero;stroke:none"
           d="m 16008.3,15814.7 105.2,105.2 c 28.8,28.8 45.7,67.3 47.3,108 l 8.4,209.6 c 0.9,22.3 -15.5,41.6 -37.6,44.3 l -125.4,15.7 c -19.9,2.5 -38.4,-10.8 -42.3,-30.5 l -28.2,-140.8 c -1.3,-6.8 -7.2,-11.7 -14.1,-11.7 H 15483 c -6.8,0 -12.8,4.9 -14.1,11.7 l -28.2,140.8 c -3.9,19.7 -22.3,33 -42.3,30.5 l -125.4,-15.7 c -22.1,-2.7 -38.5,-22 -37.5,-44.3 l 8.3,-209.6 c 1.6,-40.7 18.6,-79.2 47.3,-108 l 105.2,-105.2 h 612" /></g><g
         transform="scale(1.20103)"
         id="g316"><path
           id="path318"
           style="fill:#100f0d;fill-opacity:1;fill-rule:nonzero;stroke:none"
           d="M 2354.37,15938.8 H 1137.05 v 143.7 c 0,120.1 97.36,217.5 217.46,217.5 h 782.41 c 120.09,0 217.45,-97.4 217.45,-217.5 v -143.7" /></g><g
         transform="scale(1.25475)"
         id="g320"><path
           id="path322"
           style="fill:#100f0d;fill-opacity:1;fill-rule:nonzero;stroke:none"
           d="m 2099.92,15480.5 h -857.89 l 92.63,819.5 h 672.63 l 92.63,-819.5" /></g><g
         transform="scale(1.28826)"
         id="g324"><path
           id="path326"
           style="fill:#100f0d;fill-opacity:1;fill-rule:nonzero;stroke:none"
           d="m 1789.63,15763.7 h -324.25 l 23.82,512.2 c 0.62,13.5 11.75,24.1 25.26,24.1 h 226.1 c 13.51,0 24.63,-10.6 25.25,-24.1 l 23.82,-512.2" /></g><g
         transform="scale(1.28614)"
         id="g328"><path
           id="path330"
           style="fill:#100f0d;fill-opacity:1;fill-rule:nonzero;stroke:none"
           d="m 1930,15814.7 105.12,105.2 c 28.79,28.8 45.69,67.3 47.31,108 l 8.38,209.6 c 0.9,22.3 -15.43,41.6 -37.57,44.3 l -125.4,15.7 c -19.91,2.5 -38.37,-10.8 -42.3,-30.5 l -28.17,-140.8 c -1.35,-6.8 -7.28,-11.7 -14.16,-11.7 h -438.53 c -6.88,0 -12.81,4.9 -14.16,11.7 l -28.17,140.8 c -3.93,19.7 -22.39,33 -42.3,30.5 l -125.4,-15.7 c -22.13,-2.7 -38.46,-22 -37.57,-44.3 l 8.38,-209.6 c 1.63,-40.7 18.52,-79.2 47.32,-108 l 105.11,-105.2 H 1930" /></g><g
         transform="scale(1.20103)"
         id="g332"><path
           id="path334"
           style="fill:#100f0d;fill-opacity:1;fill-rule:nonzero;stroke:none"
           d="M 4605.29,15938.8 H 3387.98 v 143.7 c 0,120.1 97.35,217.5 217.44,217.5 h 782.43 c 120.09,0 217.44,-97.4 217.44,-217.5 v -143.7" /></g><g
         transform="scale(1.30366)"
         id="g336"><path
           id="path338"
           style="fill:#100f0d;fill-opacity:1;fill-rule:nonzero;stroke:none"
           d="m 3417.08,15867.2 c -49.3,12.3 -73.94,-24.7 -73.94,-24.7 12.32,49.3 61.62,135.6 110.91,98.6 49.3,-36.9 12.33,-86.2 -36.97,-73.9 z m 764.09,-283.5 c -21.44,407.7 -472.75,525.9 -589.09,549.7 -17.99,3.7 -34.26,13.4 -46.09,27.6 l -82.2,98.6 c -33.64,40.4 -99.09,23.8 -109.44,-27.8 l -20.7,-104.1 c -1.85,-9 -6.66,-17 -13.81,-22.8 -36.11,-29.3 -149.24,-126.3 -149.24,-188.4 v -2.2 c -0.37,-50.7 -17.87,-99.6 -48.19,-140.2 l -155.9,-207.9 c -42.76,-56.8 -27.61,-138.1 32.79,-175.8 l 82.2,-51.4 c 56.44,-35.3 130.75,-19.3 167.72,36.1 l 43.76,65.7 c 7.88,11.8 21.56,17.8 35.61,16.5 141.11,-13.8 227.63,99.2 259.42,150.8 7.03,11.5 23.91,10.1 28.96,-2.2 19.6,-47.3 33.04,-151.3 -138.27,-268.7 -234.16,-160.2 -221.83,-382 -221.83,-382 h 767.91 c 0,0 181.04,160.2 156.39,628.5" /></g><g
         transform="scale(1.20103)"
         id="g340"><path
           id="path342"
           style="fill:#100f0d;fill-opacity:1;fill-rule:nonzero;stroke:none"
           d="m 15373.8,15938.8 h -1217.3 v 143.7 c 0,120.1 97.4,217.5 217.5,217.5 h 782.4 c 120.1,0 217.4,-97.4 217.4,-217.5 v -143.7" /></g><g
         transform="scale(1.30366)"
         id="g344"><path
           id="path346"
           style="fill:#100f0d;fill-opacity:1;fill-rule:nonzero;stroke:none"
           d="m 13338,15867.2 c -49.4,12.3 -74,-24.7 -74,-24.7 12.3,49.3 61.6,135.6 110.9,98.6 49.3,-36.9 12.3,-86.2 -36.9,-73.9 z m 764,-283.5 c -21.4,407.7 -472.7,525.9 -589.1,549.7 -18,3.7 -34.3,13.4 -46.1,27.6 l -82.2,98.6 c -33.6,40.4 -99,23.8 -109.4,-27.8 l -20.7,-104.1 c -1.8,-9 -6.7,-17 -13.8,-22.8 -36.1,-29.3 -149.3,-126.3 -149.3,-188.4 v -2.2 c -0.4,-50.7 -17.9,-99.6 -48.2,-140.2 l -155.8,-207.9 c -42.8,-56.8 -27.6,-138.1 32.7,-175.8 l 82.3,-51.4 c 56.4,-35.3 130.7,-19.3 167.6,36.1 l 43.8,65.7 c 7.9,11.8 21.6,17.8 35.6,16.5 141.2,-13.8 227.6,99.2 259.5,150.8 6.9,11.5 23.9,10.1 28.9,-2.2 19.6,-47.3 33,-151.3 -138.2,-268.7 -234.2,-160.2 -221.9,-382 -221.9,-382 h 767.9 c 0,0 181.1,160.2 156.4,628.5" /></g><g
         transform="scale(1.20103)"
         id="g348"><path
           id="path350"
           style="fill:#100f0d;fill-opacity:1;fill-rule:nonzero;stroke:none"
           d="M 6661.8,15938.8 H 5444.48 v 143.7 c 0,120.1 97.35,217.5 217.45,217.5 h 782.42 c 120.09,0 217.45,-97.4 217.45,-217.5 v -143.7" /></g><g
         transform="scale(1.30647)"
         id="g352"><path
           id="path354"
           style="fill:#100f0d;fill-opacity:1;fill-rule:nonzero;stroke:none"
           d="m 5316.81,14972.1 c 0,0 -201.07,123 -225.66,455.1 -20.92,282.4 242.86,511.4 322.15,573.5 11.57,9.1 14.51,25.5 6.55,37.9 -25.36,39.4 -64.01,126.6 27.92,200.2 76.52,61.2 162.57,12.9 216.65,-32.3 31,-25.9 36.3,-71.6 12.07,-103.9 -70.9,-94.6 -205.76,-320.7 -192.58,-659 0.35,-9.2 7.98,-16.4 17.12,-16.4 h 124.99 c 9.88,0 17.69,8.2 17,18.1 -4.99,71.4 -14.57,337.3 101.54,508 5.44,8 16.94,8.8 23.61,1.8 82.48,-86.4 514.88,-582.6 11.63,-1007.5 l -462.99,24.5" /></g><g
         transform="scale(1.20103)"
         id="g356"><path
           id="path358"
           style="fill:#100f0d;fill-opacity:1;fill-rule:nonzero;stroke:none"
           d="m 13122.9,15938.8 h -1217.3 v 143.7 c 0,120.1 97.4,217.5 217.5,217.5 h 782.4 c 120.1,0 217.4,-97.4 217.4,-217.5 v -143.7" /></g><g
         transform="scale(1.30647)"
         id="g360"><path
           id="path362"
           style="fill:#100f0d;fill-opacity:1;fill-rule:nonzero;stroke:none"
           d="m 11256.5,14972.1 c 0,0 -201.1,123 -225.7,455.1 -20.9,282.4 242.8,511.4 322.1,573.5 11.7,9.1 14.6,25.5 6.6,37.9 -25.3,39.4 -64,126.6 28,200.2 76.4,61.2 162.5,12.9 216.6,-32.3 31,-25.9 36.3,-71.6 12.1,-103.9 -70.9,-94.6 -205.8,-320.7 -192.6,-659 0.4,-9.2 7.9,-16.4 17.1,-16.4 h 125 c 9.9,0 17.7,8.2 17,18.1 -5,71.4 -14.6,337.3 101.5,508 5.4,8 17,8.8 23.7,1.8 82.4,-86.4 514.8,-582.6 11.6,-1007.5 l -463,24.5" /></g><g
         transform="scale(1.20103)"
         id="g364"><path
           id="path366"
           style="fill:#100f0d;fill-opacity:1;fill-rule:nonzero;stroke:none"
           d="M 8815.52,15938.8 H 7598.2 v 143.7 c 0,120.1 97.35,217.5 217.44,217.5 h 782.41 c 120.14,0 217.47,-97.4 217.47,-217.5 v -143.7" /></g><g
         transform="scale(1.30143)"
         id="g368"><path
           id="path370"
           style="fill:#100f0d;fill-opacity:1;fill-rule:nonzero;stroke:none"
           d="m 7531.49,16110.2 c -3.5,-99.4 -86.92,-177.2 -186.33,-173.7 -99.41,3.5 -177.15,86.9 -173.66,186.3 3.5,99.4 86.92,177.2 186.34,173.7 99.4,-3.5 177.15,-86.9 173.65,-186.3" /></g><g
         transform="scale(1.2757)"
         id="g372"><path
           id="path374"
           style="fill:#100f0d;fill-opacity:1;fill-rule:nonzero;stroke:none"
           d="m 7279.29,16120.8 c -3.3,-93.8 -82.04,-167.2 -175.88,-163.9 -93.83,3.3 -167.22,82 -163.92,175.9 3.31,93.8 82.05,167.2 175.89,163.9 93.83,-3.3 167.21,-82.1 163.91,-175.9" /></g><g
         transform="scale(1.30143)"
         id="g376"><path
           id="path378"
           style="fill:#100f0d;fill-opacity:1;fill-rule:nonzero;stroke:none"
           d="m 7615.93,16110.2 c 3.49,-99.4 86.89,-177.2 186.32,-173.7 99.43,3.5 177.19,86.9 173.66,186.3 -3.46,99.4 -86.91,177.2 -186.33,173.7 -99.44,-3.5 -177.16,-86.9 -173.65,-186.3" /></g><g
         transform="scale(1.2757)"
         id="g380"><path
           id="path382"
           style="fill:#100f0d;fill-opacity:1;fill-rule:nonzero;stroke:none"
           d="m 8173.74,16120.8 c 3.29,-93.8 81.99,-167.2 175.82,-163.9 93.84,3.3 167.29,82 163.99,175.9 -3.36,93.8 -82.07,167.2 -175.9,163.9 -93.83,-3.3 -167.2,-82.1 -163.91,-175.9" /></g><g
         transform="scale(1.28284)"
         id="g384"><path
           id="path386"
           style="fill:#100f0d;fill-opacity:1;fill-rule:nonzero;stroke:none"
           d="m 7150.28,16037 232.62,-288.1 v 551.1 l 162.82,-50.1 68.88,-211.5 68.88,-211.5 68.88,211.5 68.89,211.5 162.84,50.1 v -551.1 l 232.61,288.1 130.57,-112.7 -338.16,-776.5 h -651.25 l -338.15,776.5 130.57,112.7" /></g><g
         transform="scale(1.20103)"
         id="g388"><path
           id="path390"
           style="fill:#100f0d;fill-opacity:1;fill-rule:nonzero;stroke:none"
           d="M 10969.3,15938.8 H 9751.89 v 143.7 c 0,120.1 97.33,217.5 217.48,217.5 h 782.43 c 120,0 217.5,-97.4 217.5,-217.5 v -143.7" /></g><g
         transform="scale(1.28382)"
         id="g392"><path
           id="path394"
           style="fill:#100f0d;fill-opacity:1;fill-rule:nonzero;stroke:none"
           d="m 10099.1,15686.8 -130.6,-163.3 c -12.39,-15.4 -31.08,-24.4 -50.71,-24.4 h -53.2 c -8.72,0 -15.73,7 -15.73,15.7 v 258.2 c 0,5.8 1.87,11.2 5.45,15.5 19.4,23.3 87.47,94.5 182.29,73.5 112.6,-25 112.6,-112.6 62.5,-175.2 z m -563.14,-172 c 0,-8.7 -7.01,-15.7 -15.73,-15.7 h -53.2 c -19.63,0 -38.32,9 -50.71,24.4 l -130.62,163.3 c -50.09,62.6 -50.09,150.2 62.54,175.2 94.72,21 162.8,-50.2 182.2,-73.5 3.66,-4.3 5.52,-9.7 5.52,-15.5 z m 901.04,434.8 c -150.2,350.4 -625.69,125.1 -625.69,125.1 h -237.8 c 0,0 -475.54,225.3 -625.71,-125.1 -150.18,-350.4 300.35,-538.1 375.44,-775.9 h 738.36 c 75.1,237.8 525.6,425.5 375.4,775.9" /></g><g
         transform="scale(1.29368)"
         id="g396"><path
           id="path398"
           style="fill:#100f0d;fill-opacity:1;fill-rule:nonzero;stroke:none"
           d="m 9838.21,16088.9 h -439.29 c -9.05,0 -16.31,7.3 -16.31,16.3 v 178.5 c 0,9 7.26,16.3 16.31,16.3 h 439.29 c 8.96,0 16.31,-7.3 16.31,-16.3 v -178.5 c 0,-9 -7.35,-16.3 -16.31,-16.3" /></g><g
         transform="scale(1.30452)"
         id="g400"><path
           id="path402"
           style="fill:#100f0d;fill-opacity:1;fill-rule:nonzero;stroke:none"
           d="m 9663.07,15684.2 h -248.9 c -9.35,0 -16.71,7.9 -16.17,17.2 l 35.03,583.4 c 0.53,8.5 7.59,15.2 16.17,15.2 h 178.84 c 8.59,0 15.64,-6.7 16.18,-15.2 l 35.03,-583.4 c 0.53,-9.3 -6.9,-17.2 -16.18,-17.2" /></g><g
         transform="scale(1.28432)"
         id="g404"><path
           id="path406"
           style="fill:#ffffff;fill-opacity:1;fill-rule:nonzero;stroke:none"
           d="m 16136.9,1140.61 -71.5,632.55 70.9,70.93 c 28.8,28.81 45.7,67.51 47.4,108.23 l 8.4,209.92 c 0.8,22.27 -15.5,41.58 -37.7,44.38 l -125.5,15.65 c -19.9,2.49 -38.5,-10.83 -42.4,-30.52 l -28.2,-141.09 c -1.4,-6.7 -7.3,-11.6 -14.2,-11.6 h -65.8 l -8.8,188.5 c -0.6,13.55 -11.8,24.14 -25.3,24.14 h -226.8 c -13.6,0 -24.7,-10.59 -25.3,-24.14 l -8.8,-188.5 h -78.3 c -6.9,0 -12.9,4.9 -14.2,11.6 l -28.2,141.09 c -4,19.69 -22.4,33.01 -42.4,30.52 l -125.6,-15.65 c -22.1,-2.8 -38.5,-22.11 -37.6,-44.38 l 8.4,-209.92 c 1.6,-40.72 18.6,-79.42 47.4,-108.23 l 82.1,-82.14 -70.2,-621.34 c -93,-18.69 -163.1,-100.84 -163.1,-199.334 V 806.887 H 16300 v 134.389 c 0,98.494 -70.1,180.644 -163.1,199.334" /></g><g
         transform="scale(1.28432)"
         id="g408"><path
           id="path410"
           style="fill:none;stroke:#100f0d;stroke-width:37.52870178;stroke-linecap:butt;stroke-linejoin:miter;stroke-miterlimit:10;stroke-dasharray:none;stroke-opacity:1"
           d="m 16136.9,1140.61 -71.5,632.55 70.9,70.93 c 28.8,28.81 45.7,67.51 47.4,108.23 l 8.4,209.92 c 0.8,22.27 -15.5,41.58 -37.7,44.38 l -125.5,15.65 c -19.9,2.49 -38.5,-10.83 -42.4,-30.52 l -28.2,-141.09 c -1.4,-6.7 -7.3,-11.6 -14.2,-11.6 h -65.8 l -8.8,188.5 c -0.6,13.55 -11.8,24.14 -25.3,24.14 h -226.8 c -13.6,0 -24.7,-10.59 -25.3,-24.14 l -8.8,-188.5 h -78.3 c -6.9,0 -12.9,4.9 -14.2,11.6 l -28.2,141.09 c -4,19.69 -22.4,33.01 -42.4,30.52 l -125.6,-15.65 c -22.1,-2.8 -38.5,-22.11 -37.6,-44.38 l 8.4,-209.92 c 1.6,-40.72 18.6,-79.42 47.4,-108.23 l 82.1,-82.14 -70.2,-621.34 c -93,-18.69 -163.1,-100.84 -163.1,-199.334 V 806.887 H 16300 v 134.389 c 0,98.494 -70.1,180.644 -163.1,199.334 z" /></g><path
         id="path412"
         style="fill:#ffffff;fill-opacity:1;fill-rule:nonzero;stroke:none"
         d="m 2618.2,1464.9 -91.83,812.4 91.07,91.1 c 37.03,37 58.76,86.7 60.85,139 l 10.78,269.6 c 1.15,28.6 -19.85,53.4 -48.32,57 l -161.28,20.1 c -25.61,3.2 -49.35,-13.9 -54.41,-39.2 l -36.23,-181.2 c -1.74,-8.6 -9.36,-14.9 -18.21,-14.9 h -84.54 l -11.26,242.1 c -0.8,17.4 -15.13,31 -32.53,31 h -291.28 c -17.4,0 -31.73,-13.6 -32.53,-31 l -11.26,-242.1 h -100.61 c -8.85,0 -16.47,6.3 -18.21,14.9 l -36.23,181.2 c -5.06,25.3 -28.8,42.4 -54.41,39.2 L 1536.49,2834 c -28.47,-3.6 -49.48,-28.4 -48.33,-57 l 10.78,-269.6 c 2.1,-52.3 23.82,-102 60.86,-139 l 105.5,-105.5 -90.2,-798 c -119.47,-24 -209.47,-129.5 -209.47,-256 v -172.6 h 1462.04 v 172.6 c 0,126.5 -90,232 -209.47,256" /><path
         id="path414"
         style="fill:none;stroke:#100f0d;stroke-width:48.19879913;stroke-linecap:butt;stroke-linejoin:miter;stroke-miterlimit:10;stroke-dasharray:none;stroke-opacity:1"
         d="m 2618.2,1464.9 -91.83,812.4 91.07,91.1 c 37.03,37 58.76,86.7 60.85,139 l 10.78,269.6 c 1.15,28.6 -19.85,53.4 -48.32,57 l -161.28,20.1 c -25.61,3.2 -49.35,-13.9 -54.41,-39.2 l -36.23,-181.2 c -1.74,-8.6 -9.36,-14.9 -18.21,-14.9 h -84.54 l -11.26,242.1 c -0.8,17.4 -15.13,31 -32.53,31 h -291.28 c -17.4,0 -31.73,-13.6 -32.53,-31 l -11.26,-242.1 h -100.61 c -8.85,0 -16.47,6.3 -18.21,14.9 l -36.23,181.2 c -5.06,25.3 -28.8,42.4 -54.41,39.2 L 1536.49,2834 c -28.47,-3.6 -49.48,-28.4 -48.33,-57 l 10.78,-269.6 c 2.1,-52.3 23.82,-102 60.86,-139 l 105.5,-105.5 -90.2,-798 c -119.47,-24 -209.47,-129.5 -209.47,-256 v -172.6 h 1462.04 v 172.6 c 0,126.5 -90,232 -209.47,256 z" /><path
         id="path416"
         style="fill:#ffffff;fill-opacity:1;fill-rule:nonzero;stroke:none"
         d="m 4454.7,2578.6 c -64.27,16.1 -96.4,-32.1 -96.4,-32.1 16.06,64.3 80.33,176.7 144.59,128.5 64.27,-48.2 16.07,-112.4 -48.19,-96.4 z m 852.54,-1111.5 c 67.54,107.3 164.96,335.5 143.57,742 -27.96,531.5 -616.31,685.6 -767.97,716.6 -23.46,4.8 -44.67,17.5 -60.09,36 l -107.16,128.5 c -43.86,52.7 -129.18,31 -142.67,-36.2 l -26.99,-135.7 c -2.41,-11.7 -8.68,-22.2 -18,-29.7 -47.07,-38.3 -194.56,-164.7 -194.56,-245.7 v -2.9 c -0.48,-66 -23.3,-129.8 -62.82,-182.7 l -203.24,-271 c -55.75,-74.1 -35.99,-180.1 42.74,-229.3 l 107.16,-67 c 73.58,-45.9 170.46,-25 218.66,47.1 l 57.04,85.6 c 10.28,15.5 28.11,23.3 46.43,21.6 183.96,-18 296.74,129.3 338.19,196.6 9.16,15 31.17,13.2 37.76,-2.9 25.55,-61.7 43.06,-197.3 -180.26,-350.2 -213.94,-146.4 -269.99,-332.1 -284.42,-430.2 -105.28,-33.7 -181.55,-132.2 -181.55,-248.7 v -172.6 h 1462.03 v 172.6 c 0,131.5 -97.34,240 -223.85,258.2" /><path
         id="path418"
         style="fill:none;stroke:#100f0d;stroke-width:48.19879913;stroke-linecap:butt;stroke-linejoin:miter;stroke-miterlimit:10;stroke-dasharray:none;stroke-opacity:1"
         d="m 4454.7,2578.6 c -64.27,16.1 -96.4,-32.1 -96.4,-32.1 16.06,64.3 80.33,176.7 144.59,128.5 64.27,-48.2 16.07,-112.4 -48.19,-96.4 z m 852.54,-1111.5 c 67.54,107.3 164.96,335.5 143.57,742 -27.96,531.5 -616.31,685.6 -767.97,716.6 -23.46,4.8 -44.67,17.5 -60.09,36 l -107.16,128.5 c -43.86,52.7 -129.18,31 -142.67,-36.2 l -26.99,-135.7 c -2.41,-11.7 -8.68,-22.2 -18,-29.7 -47.07,-38.3 -194.56,-164.7 -194.56,-245.7 v -2.9 c -0.48,-66 -23.3,-129.8 -62.82,-182.7 l -203.24,-271 c -55.75,-74.1 -35.99,-180.1 42.74,-229.3 l 107.16,-67 c 73.58,-45.9 170.46,-25 218.66,47.1 l 57.04,85.6 c 10.28,15.5 28.11,23.3 46.43,21.6 183.96,-18 296.74,129.3 338.19,196.6 9.16,15 31.17,13.2 37.76,-2.9 25.55,-61.7 43.06,-197.3 -180.26,-350.2 -213.94,-146.4 -269.99,-332.1 -284.42,-430.2 -105.28,-33.7 -181.55,-132.2 -181.55,-248.7 v -172.6 h 1462.03 v 172.6 c 0,131.5 -97.34,240 -223.85,258.2 z" /><g
         transform="scale(1.13279)"
         id="g420"><path
           id="path422"
           style="fill:#ffffff;fill-opacity:1;fill-rule:nonzero;stroke:none"
           d="m 15349.9,2276.34 c -56.8,14.21 -85.1,-28.34 -85.1,-28.34 14.1,56.76 70.9,155.99 127.6,113.44 56.7,-42.55 14.1,-99.23 -42.5,-85.1 z m 752.5,-981.21 c 59.6,94.72 145.7,296.17 126.8,655.02 -24.7,469.2 -544.1,605.23 -678,632.6 -20.7,4.24 -39.4,15.45 -53,31.78 l -94.7,113.44 c -38.6,46.52 -113.9,27.36 -125.8,-31.96 l -23.9,-119.79 c -2.1,-10.33 -7.7,-19.6 -15.9,-26.22 -41.5,-33.81 -171.8,-145.39 -171.8,-216.9 v -2.56 c -0.4,-58.26 -20.5,-114.59 -55.4,-161.28 l -179.4,-239.24 c -49.2,-65.41 -31.8,-158.99 37.7,-202.42 l 94.7,-59.15 c 64.9,-40.51 150.4,-22.07 192.9,41.58 l 50.4,75.57 c 9,13.68 24.8,20.57 41,19.07 162.4,-15.89 261.9,114.14 298.6,173.55 8,13.25 27.5,11.66 33.2,-2.56 22.6,-54.47 38.1,-174.17 -159,-309.15 -189,-129.24 -238.4,-293.17 -251.1,-379.77 -93,-29.75 -160.3,-116.7 -160.3,-219.55 V 914.825 H 16300 v 152.365 c 0,116.09 -85.9,211.87 -197.6,227.94" /></g><g
         transform="scale(1.13279)"
         id="g424"><path
           id="path426"
           style="fill:none;stroke:#100f0d;stroke-width:42.5489006;stroke-linecap:butt;stroke-linejoin:miter;stroke-miterlimit:10;stroke-dasharray:none;stroke-opacity:1"
           d="m 15349.9,2276.34 c -56.8,14.21 -85.1,-28.34 -85.1,-28.34 14.1,56.76 70.9,155.99 127.6,113.44 56.7,-42.55 14.1,-99.23 -42.5,-85.1 z m 752.5,-981.21 c 59.6,94.72 145.7,296.17 126.8,655.02 -24.7,469.2 -544.1,605.23 -678,632.6 -20.7,4.24 -39.4,15.45 -53,31.78 l -94.7,113.44 c -38.6,46.52 -113.9,27.36 -125.8,-31.96 l -23.9,-119.79 c -2.1,-10.33 -7.7,-19.6 -15.9,-26.22 -41.5,-33.81 -171.8,-145.39 -171.8,-216.9 v -2.56 c -0.4,-58.26 -20.5,-114.59 -55.4,-161.28 l -179.4,-239.24 c -49.2,-65.41 -31.8,-158.99 37.7,-202.42 l 94.7,-59.15 c 64.9,-40.51 150.4,-22.07 192.9,41.58 l 50.4,75.57 c 9,13.68 24.8,20.57 41,19.07 162.4,-15.89 261.9,114.14 298.6,173.55 8,13.25 27.5,11.66 33.2,-2.56 22.6,-54.47 38.1,-174.17 -159,-309.15 -189,-129.24 -238.4,-293.17 -251.1,-379.77 -93,-29.75 -160.3,-116.7 -160.3,-219.55 V 914.825 H 16300 v 152.365 c 0,116.09 -85.9,211.87 -197.6,227.94 z" /></g><path
         id="path428"
         style="fill:#ffffff;fill-opacity:1;fill-rule:nonzero;stroke:none"
         d="m 7739.84,1470.1 h -134.99 c 571.5,543.9 35.77,1158.4 -68.89,1268.1 -8.72,9.1 -23.75,8.1 -30.85,-2.3 -151.7,-223.1 -139.18,-570.5 -132.66,-663.7 0.9,-12.9 -9.3,-23.7 -22.21,-23.7 h -163.3 c -11.94,0 -21.9,9.5 -22.36,21.4 -17.22,442 158.97,737.4 251.59,861 31.66,42.2 24.74,101.9 -15.76,135.7 -70.66,59.1 -183.07,122.2 -283.05,42.2 -120.1,-96.1 -69.62,-210.1 -36.47,-261.6 10.4,-16.1 6.55,-37.5 -8.56,-49.4 -103.6,-81.2 -448.22,-380.4 -420.89,-749.3 26.4,-356.5 208.39,-528.4 272.47,-578.4 h -123.77 c -144.24,0 -261.16,-117 -261.16,-261.2 v -172.6 h 1462.03 v 172.6 c 0,144.2 -116.93,261.2 -261.17,261.2" /><path
         id="path430"
         style="fill:none;stroke:#100f0d;stroke-width:48.19879913;stroke-linecap:butt;stroke-linejoin:miter;stroke-miterlimit:10;stroke-dasharray:none;stroke-opacity:1"
         d="m 7739.84,1470.1 h -134.99 c 571.5,543.9 35.77,1158.4 -68.89,1268.1 -8.72,9.1 -23.75,8.1 -30.85,-2.3 -151.7,-223.1 -139.18,-570.5 -132.66,-663.7 0.9,-12.9 -9.3,-23.7 -22.21,-23.7 h -163.3 c -11.94,0 -21.9,9.5 -22.36,21.4 -17.22,442 158.97,737.4 251.59,861 31.66,42.2 24.74,101.9 -15.76,135.7 -70.66,59.1 -183.07,122.2 -283.05,42.2 -120.1,-96.1 -69.62,-210.1 -36.47,-261.6 10.4,-16.1 6.55,-37.5 -8.56,-49.4 -103.6,-81.2 -448.22,-380.4 -420.89,-749.3 26.4,-356.5 208.39,-528.4 272.47,-578.4 h -123.77 c -144.24,0 -261.16,-117 -261.16,-261.2 v -172.6 h 1462.03 v 172.6 c 0,144.2 -116.93,261.2 -261.17,261.2 z" /><path
         id="path432"
         style="fill:#ffffff;fill-opacity:1;fill-rule:nonzero;stroke:none"
         d="m 15499.9,1470.1 h -135 c 571.5,543.9 35.7,1158.4 -68.9,1268.1 -8.7,9.1 -23.8,8.1 -30.9,-2.3 -151.7,-223.1 -139.2,-570.5 -132.6,-663.7 0.9,-12.9 -9.3,-23.7 -22.2,-23.7 H 14947 c -12,0 -21.9,9.5 -22.4,21.4 -17.2,442 159,737.4 251.6,861 31.6,42.2 24.7,101.9 -15.8,135.7 -70.6,59.1 -183.1,122.2 -283,42.2 -120.1,-96.1 -69.6,-210.1 -36.5,-261.6 10.4,-16.1 6.6,-37.5 -8.6,-49.4 -103.6,-81.2 -448.2,-380.4 -420.8,-749.3 26.4,-356.5 208.3,-528.4 272.4,-578.4 h -123.7 c -144.3,0 -261.2,-117 -261.2,-261.2 v -172.6 h 1462 v 172.6 c 0,144.2 -116.9,261.2 -261.1,261.2" /><path
         id="path434"
         style="fill:none;stroke:#100f0d;stroke-width:48.19879913;stroke-linecap:butt;stroke-linejoin:miter;stroke-miterlimit:10;stroke-dasharray:none;stroke-opacity:1"
         d="m 15499.9,1470.1 h -135 c 571.5,543.9 35.7,1158.4 -68.9,1268.1 -8.7,9.1 -23.8,8.1 -30.9,-2.3 -151.7,-223.1 -139.2,-570.5 -132.6,-663.7 0.9,-12.9 -9.3,-23.7 -22.2,-23.7 H 14947 c -12,0 -21.9,9.5 -22.4,21.4 -17.2,442 159,737.4 251.6,861 31.6,42.2 24.7,101.9 -15.8,135.7 -70.6,59.1 -183.1,122.2 -283,42.2 -120.1,-96.1 -69.6,-210.1 -36.5,-261.6 10.4,-16.1 6.6,-37.5 -8.6,-49.4 -103.6,-81.2 -448.2,-380.4 -420.8,-749.3 26.4,-356.5 208.3,-528.4 272.4,-578.4 h -123.7 c -144.3,0 -261.2,-117 -261.2,-261.2 v -172.6 h 1462 v 172.6 c 0,144.2 -116.9,261.2 -261.1,261.2 z" /><path
         id="path436"
         style="fill:#ffffff;fill-opacity:1;fill-rule:nonzero;stroke:none"
         d="m 10860.7,2473.8 c -4.3,119.7 -104.7,213.3 -224.4,209.1 -119.7,-4.2 -213.3,-104.7 -209.1,-224.4 1.2,-35.8 11.3,-69.2 27.7,-98.5 l -212.6,-263.3 v 557.5 c 84.1,38 141.3,123.9 137.8,221.9 -4.5,129.4 -113.1,230.5 -242.5,226 -129.4,-4.6 -230.55,-113.1 -225.99,-242.5 2.7,-76.9 42.28,-143.6 100.99,-184.3 l -67.57,-207.3 -88.37,-271.3 -88.36,271.3 -67.53,207.3 c 58.67,40.7 98.25,107.4 100.95,184.3 4.56,129.4 -96.63,237.9 -226,242.5 -129.38,4.5 -237.95,-96.6 -242.5,-226 -3.45,-98 53.75,-183.9 137.85,-221.9 V 2096.7 L 9258.39,2360 c 16.46,29.3 26.51,62.7 27.77,98.5 4.21,119.7 -89.41,220.2 -209.11,224.4 -119.71,4.2 -220.16,-89.4 -224.38,-209.1 -3.89,-110.7 75.98,-204.8 182.72,-221.7 l 340.82,-782.6 c -139.29,-5.6 -250.56,-119.9 -250.56,-260.6 v -172.6 h 1462.05 v 172.6 c 0,140.7 -111.3,255 -250.6,260.6 l 340.8,782.6 c 106.8,16.9 186.7,111 182.8,221.7" /><path
         id="path438"
         style="fill:none;stroke:#100f0d;stroke-width:48.19879913;stroke-linecap:butt;stroke-linejoin:miter;stroke-miterlimit:10;stroke-dasharray:none;stroke-opacity:1"
         d="m 10860.7,2473.8 c -4.3,119.7 -104.7,213.3 -224.4,209.1 -119.7,-4.2 -213.3,-104.7 -209.1,-224.4 1.2,-35.8 11.3,-69.2 27.7,-98.5 l -212.6,-263.3 v 557.5 c 84.1,38 141.3,123.9 137.8,221.9 -4.5,129.4 -113.1,230.5 -242.5,226 -129.4,-4.6 -230.55,-113.1 -225.99,-242.5 2.7,-76.9 42.28,-143.6 100.99,-184.3 l -67.57,-207.3 -88.37,-271.3 -88.36,271.3 -67.53,207.3 c 58.67,40.7 98.25,107.4 100.95,184.3 4.56,129.4 -96.63,237.9 -226,242.5 -129.38,4.5 -237.95,-96.6 -242.5,-226 -3.45,-98 53.75,-183.9 137.85,-221.9 V 2096.7 L 9258.39,2360 c 16.46,29.3 26.51,62.7 27.77,98.5 4.21,119.7 -89.41,220.2 -209.11,224.4 -119.71,4.2 -220.16,-89.4 -224.38,-209.1 -3.89,-110.7 75.98,-204.8 182.72,-221.7 l 340.82,-782.6 c -139.29,-5.6 -250.56,-119.9 -250.56,-260.6 v -172.6 h 1462.05 v 172.6 c 0,140.7 -111.3,255 -250.6,260.6 l 340.8,782.6 c 106.8,16.9 186.7,111 182.8,221.7 z" /><path
         id="path440"
         style="fill:#ffffff;fill-opacity:1;fill-rule:nonzero;stroke:none"
         d="m 12001.5,2257.3 c 121.6,27 209,-64.4 233.9,-94.3 4.7,-5.6 7.1,-12.5 7.1,-19.9 v -331.5 c 0,-11.2 -9,-20.2 -20.2,-20.2 h -68.3 c -25.2,0 -49.2,11.6 -65.1,31.3 l -167.7,209.7 c -64.3,80.3 -64.3,192.8 80.3,224.9 z m 642.7,-114.2 c 0,7.4 2.4,14.3 7,19.9 24.9,29.9 112.3,121.3 234,94.3 144.6,-32.1 144.6,-144.6 80.3,-224.9 l -167.7,-209.7 c -15.9,-19.7 -39.9,-31.3 -65.1,-31.3 h -68.3 c -11.2,0 -20.2,9 -20.2,20.2 z m 316.5,-677.6 c 163.2,264.9 611.7,500.4 438.6,904.3 -171.5,400.2 -673.6,215.5 -782.4,169.8 l -10,167.6 h 120.6 c 11.6,0 21.1,9.4 21.1,21.1 v 230.9 c 0,11.6 -9.5,21.1 -21.1,21.1 h -137 l -9.4,156.9 c -0.7,11.1 -9.9,19.8 -21.1,19.8 h -233.3 c -11.2,0 -20.4,-8.7 -21.1,-19.8 l -9.4,-156.9 h -137 c -11.7,0 -21.1,-9.5 -21.1,-21.1 v -230.9 c 0,-11.7 9.4,-21.1 21.1,-21.1 h 120.6 l -10.1,-167.6 c -108.8,45.7 -610.8,230.4 -782.3,-169.8 -173.1,-403.9 275.3,-639.4 438.6,-904.3 -121.5,-22.3 -213.7,-128.6 -213.7,-256.6 v -172.6 h 1462.1 v 172.6 c 0,128 -92.2,234.3 -213.7,256.6" /><path
         id="path442"
         style="fill:none;stroke:#100f0d;stroke-width:48.19879913;stroke-linecap:butt;stroke-linejoin:miter;stroke-miterlimit:10;stroke-dasharray:none;stroke-opacity:1"
         d="m 12001.5,2257.3 c 121.6,27 209,-64.4 233.9,-94.3 4.7,-5.6 7.1,-12.5 7.1,-19.9 v -331.5 c 0,-11.2 -9,-20.2 -20.2,-20.2 h -68.3 c -25.2,0 -49.2,11.6 -65.1,31.3 l -167.7,209.7 c -64.3,80.3 -64.3,192.8 80.3,224.9 z m 642.7,-114.2 c 0,7.4 2.4,14.3 7,19.9 24.9,29.9 112.3,121.3 234,94.3 144.6,-32.1 144.6,-144.6 80.3,-224.9 l -167.7,-209.7 c -15.9,-19.7 -39.9,-31.3 -65.1,-31.3 h -68.3 c -11.2,0 -20.2,9 -20.2,20.2 z m 316.5,-677.6 c 163.2,264.9 611.7,500.4 438.6,904.3 -171.5,400.2 -673.6,215.5 -782.4,169.8 l -10,167.6 h 120.6 c 11.6,0 21.1,9.4 21.1,21.1 v 230.9 c 0,11.6 -9.5,21.1 -21.1,21.1 h -137 l -9.4,156.9 c -0.7,11.1 -9.9,19.8 -21.1,19.8 h -233.3 c -11.2,0 -20.4,-8.7 -21.1,-19.8 l -9.4,-156.9 h -137 c -11.7,0 -21.1,-9.5 -21.1,-21.1 v -230.9 c 0,-11.7 9.4,-21.1 21.1,-21.1 h 120.6 l -10.1,-167.6 c -108.8,45.7 -610.8,230.4 -782.3,-169.8 -173.1,-403.9 275.3,-639.4 438.6,-904.3 -121.5,-22.3 -213.7,-128.6 -213.7,-256.6 v -172.6 h 1462.1 v 172.6 c 0,128 -92.2,234.3 -213.7,256.6 z" /></g></g></svg>