<svg xmlns="http://www.w3.org/2000/svg" xml:space="preserve" width="2973.333" height="2973.333"><path d="M16300 0H0v16300h16300z" style="fill:#201e1d;fill-opacity:1;fill-rule:nonzero;stroke:none" transform="matrix(.18241 0 0 -.18241 0 2973.333)"/><path d="M16300 372.401H372.365V16300H16300z" style="fill:#cf8137;fill-opacity:1;fill-rule:nonzero;stroke:none" transform="matrix(.17834 0 0 -.17834 0 2973.333)"/><path d="M2570.48 16300v-1961.4H609.117V16300zM6493.2 16300v-1961.4H4531.84V16300zM10415.9 16300v-1961.4H8454.56V16300zM14338.6 16300v-1961.4h-1961.4V16300z" style="fill:#fbc78e;fill-opacity:1;fill-rule:nonzero;stroke:none" transform="matrix(.17584 0 0 -.17584 0 2973.333)"/><path d="M4531.84 16300v-1961.4H2570.48V16300zM8454.56 16300v-1961.4H6493.2V16300zM12377.2 16300v-1961.4h-1961.3V16300z" style="fill:#cf8137;fill-opacity:1;fill-rule:nonzero;stroke:none" transform="matrix(.17584 0 0 -.17584 0 2973.333)"/><path d="M16300 14338.6v-1961.3h-1961.4v1961.3z" style="fill:#fbc78e;fill-opacity:1;fill-rule:nonzero;stroke:none" transform="matrix(.17584 0 0 -.17584 0 2973.333)"/><path d="M16300 16300v-2229.7h-2229.7V16300zM11840.7 16300v-2229.7H9611.05V16300zM7381.4 16300v-2229.7H5151.74V16300z" style="fill:#cf8137;fill-opacity:1;fill-rule:nonzero;stroke:none" transform="matrix(.15468 0 0 -.15468 0 2973.333)"/><path d="M3385.14 16300v-2583H802.164v2583z" style="fill:#fbc78e;fill-opacity:1;fill-rule:nonzero;stroke:none" transform="matrix(.13352 0 0 -.13352 0 2973.333)"/><path d="M2922.09 16300v-2229.7H692.437V16300z" style="fill:#cf8137;fill-opacity:1;fill-rule:nonzero;stroke:none" transform="matrix(.15468 0 0 -.15468 0 2973.333)"/><path d="M5968.11 16300v-2583H3385.14v2583zM11134.1 16300v-2583H8551.09v2583zM16300 16300v-2583h-2582.9v2583z" style="fill:#cf8137;fill-opacity:1;fill-rule:nonzero;stroke:none" transform="matrix(.13352 0 0 -.13352 0 2973.333)"/><path d="M16300 10415.9V8454.55h-1961.4v1961.35z" style="fill:#fbc78e;fill-opacity:1;fill-rule:nonzero;stroke:none" transform="matrix(.17584 0 0 -.17584 0 2973.333)"/><path d="M16300 11840.7V9611.05h-2229.7v2229.65z" style="fill:#cf8137;fill-opacity:1;fill-rule:nonzero;stroke:none" transform="matrix(.15468 0 0 -.15468 0 2973.333)"/><path d="M13736.7 13736.7V11150H11150v2586.7zM8563.33 13736.7V11150H5976.66v2586.7z" style="fill:#cf8137;fill-opacity:1;fill-rule:nonzero;stroke:none" transform="matrix(.13333 0 0 -.13333 0 2973.333)"/><path d="M3389.99 11150V8563.3H803.313V11150z" style="fill:#fbc78e;fill-opacity:1;fill-rule:nonzero;stroke:none" transform="matrix(.13333 0 0 -.13333 0 2973.333)"/><path d="M3389.99 13736.7V11150H803.313v2586.7zM5976.66 11150V8563.3H3389.99V11150zM11150 11150V8563.3H8563.33V11150z" style="fill:#cf8137;fill-opacity:1;fill-rule:nonzero;stroke:none" transform="matrix(.13333 0 0 -.13333 0 2973.333)"/><path d="M16300 11134.1V8551.08h-2582.9v2583.02z" style="fill:#cf8137;fill-opacity:1;fill-rule:nonzero;stroke:none" transform="matrix(.13352 0 0 -.13352 0 2973.333)"/><path d="M16300 6493.17v-1961.3h-1961.4v1961.3z" style="fill:#fbc78e;fill-opacity:1;fill-rule:nonzero;stroke:none" transform="matrix(.17584 0 0 -.17584 0 2973.333)"/><path d="M16300 7381.37V5151.78h-2229.7v2229.59z" style="fill:#cf8137;fill-opacity:1;fill-rule:nonzero;stroke:none" transform="matrix(.15468 0 0 -.15468 0 2973.333)"/><path d="M13736.7 8563.3V5976.7H11150v2586.6zM8563.33 8563.3V5976.7H5976.66v2586.6z" style="fill:#cf8137;fill-opacity:1;fill-rule:nonzero;stroke:none" transform="matrix(.13333 0 0 -.13333 0 2973.333)"/><path d="M3389.99 5976.7V3390H803.313v2586.7z" style="fill:#fbc78e;fill-opacity:1;fill-rule:nonzero;stroke:none" transform="matrix(.13333 0 0 -.13333 0 2973.333)"/><path d="M3389.99 8563.3V5976.7H803.313v2586.6z" style="fill:#cf8137;fill-opacity:1;fill-rule:nonzero;stroke:none" transform="matrix(.13333 0 0 -.13333 0 2973.333)"/><path d="M5976.66 3390V803.301H3389.99V3390z" style="fill:#fbc78e;fill-opacity:1;fill-rule:nonzero;stroke:none" transform="matrix(.13333 0 0 -.13333 0 2973.333)"/><path d="M3389.99 3390V803.301H803.313V3390zM5976.66 5976.7V3390H3389.99v2586.7z" style="fill:#cf8137;fill-opacity:1;fill-rule:nonzero;stroke:none" transform="matrix(.13333 0 0 -.13333 0 2973.333)"/><path d="M11150 3390V803.301H8563.33V3390z" style="fill:#fbc78e;fill-opacity:1;fill-rule:nonzero;stroke:none" transform="matrix(.13333 0 0 -.13333 0 2973.333)"/><path d="M8563.33 3390V803.301H5976.66V3390zM11150 5976.7V3390H8563.33v2586.7z" style="fill:#cf8137;fill-opacity:1;fill-rule:nonzero;stroke:none" transform="matrix(.13333 0 0 -.13333 0 2973.333)"/><path d="M16300 3385.16V802.154h-2582.9V3385.16z" style="fill:#fbc78e;fill-opacity:1;fill-rule:nonzero;stroke:none" transform="matrix(.13352 0 0 -.13352 0 2973.333)"/><path d="M13736.7 3390V803.301H11150V3390z" style="fill:#cf8137;fill-opacity:1;fill-rule:nonzero;stroke:none" transform="matrix(.13333 0 0 -.13333 0 2973.333)"/><path d="M16300 5968.17V3385.16h-2582.9v2583.01z" style="fill:#cf8137;fill-opacity:1;fill-rule:nonzero;stroke:none" transform="matrix(.13352 0 0 -.13352 0 2973.333)"/><path d="M16300 2570.49V609.108h-1961.4V2570.49z" style="fill:#fbc78e;fill-opacity:1;fill-rule:nonzero;stroke:none" transform="matrix(.17584 0 0 -.17584 0 2973.333)"/><path d="M16300 2922.1V692.427h-2229.7V2922.1z" style="fill:#cf8137;fill-opacity:1;fill-rule:nonzero;stroke:none" transform="matrix(.15468 0 0 -.15468 0 2973.333)"/><path d="M16300 4531.87V2570.49h-1961.4v1961.38zM16300 8454.55V6493.17h-1961.4v1961.38zM16300 12377.3v-1961.4h-1961.4v1961.4zM16300 16300v-1961.4h-1961.4V16300z" style="fill:#cf8137;fill-opacity:1;fill-rule:nonzero;stroke:none" transform="matrix(.17584 0 0 -.17584 0 2973.333)"/><path d="M13736.7 5976.7V3390H11150v2586.7zM8563.33 5976.7V3390H5976.66v2586.7zM11150 8563.3V5976.7H8563.33v2586.6zM13736.7 11150V8563.3H11150V11150z" style="fill:#fbc78e;fill-opacity:1;fill-rule:nonzero;stroke:none" transform="matrix(.13333 0 0 -.13333 0 2973.333)"/><path d="M13717.1 16300v-2583h-2583v2583z" style="fill:#fbc78e;fill-opacity:1;fill-rule:nonzero;stroke:none" transform="matrix(.13352 0 0 -.13352 0 2973.333)"/><path d="M5151.74 16300v-2229.7H2922.09V16300zM14070.3 16300v-2229.7h-2229.6V16300zM9611.05 16300v-2229.7H7381.4V16300zM16300 14070.4v-2229.7h-2229.7v2229.7zM16300 9611.05V7381.37h-2229.7v2229.68zM16300 5151.78V2922.1h-2229.7v2229.68z" style="fill:#fbc78e;fill-opacity:1;fill-rule:nonzero;stroke:none" transform="matrix(.15468 0 0 -.15468 0 2973.333)"/><path d="M16300 13717.1v-2583h-2582.9v2583zM16300 8551.08V5968.17h-2582.9v2582.91z" style="fill:#fbc78e;fill-opacity:1;fill-rule:nonzero;stroke:none" transform="matrix(.13352 0 0 -.13352 0 2973.333)"/><path d="M11150 13736.7V11150H8563.33v2586.7z" style="fill:#fbc78e;fill-opacity:1;fill-rule:nonzero;stroke:none" transform="matrix(.13333 0 0 -.13333 0 2973.333)"/><path d="M8551.09 16300v-2583H5968.11v2583z" style="fill:#fbc78e;fill-opacity:1;fill-rule:nonzero;stroke:none" transform="matrix(.13352 0 0 -.13352 0 2973.333)"/><path d="M5976.66 13736.7V11150H3389.99v2586.7zM8563.33 11150V8563.3H5976.66V11150zM5976.66 8563.3V5976.7H3389.99v2586.6z" style="fill:#fbc78e;fill-opacity:1;fill-rule:nonzero;stroke:none" transform="matrix(.13333 0 0 -.13333 0 2973.333)"/><path d="M1296.22 14761.9c-12.79 0-23.29 10-24.05 22.7-3.87 65.9 3.1 260.2 200.48 387.9 187.93 121.6 203.26 277.8 200.94 340.4-.59 15.6-13.58 27.8-29.17 27.8h-67.83c-20.15 0-38.42 11.9-46.6 30.3l-25.56 57.5c-9.86 22.2-.53 48.2 21.18 59.1l118.25 59.2c12.68 6.3 14.92 23.2 4.7 33-58 55.9-93.36 135.3-90.82 222.9 4.43 152.9 128.02 279.8 280.77 288 171.74 9.3 313.82-127.2 313.82-296.9 0-84.4-35.21-160.6-91.7-214.7-10.04-9.6-8.11-26.1 4.1-32.7l107.34-58.2c20.84-11.3 29.49-36.8 19.85-58.4l-26.12-58.8c-8.19-18.4-26.45-30.3-46.61-30.3h-67.83c-15.6 0-28.58-12.2-29.16-27.8-2.32-62.6 13.01-218.8 200.94-340.4 197.38-127.7 204.35-322 200.46-387.9-.74-12.7-11.24-22.7-24.03-22.7zM3575.99 14761.9c-12.79 0-23.28 10-24.03 22.7-3.89 65.9 3.08 260.2 200.46 387.9 187.93 121.6 203.26 277.8 200.94 340.4-.57 15.6-13.56 27.8-29.16 27.8h-67.83c-20.16 0-38.42 11.9-46.61 30.3l-25.56 57.5c-9.85 22.2-.53 48.2 21.18 59.1l118.25 59.2c12.69 6.3 14.93 23.2 4.71 33-58 55.9-93.36 135.3-90.82 222.9 4.43 152.9 128.01 279.8 280.77 288 171.73 9.3 313.82-127.2 313.82-296.9 0-84.4-35.22-160.6-91.71-214.7-10.04-9.6-8.1-26.1 4.11-32.7l107.34-58.2c20.83-11.3 29.48-36.8 19.85-58.4l-26.13-58.8c-8.19-18.4-26.45-30.3-46.6-30.3h-67.83c-15.6 0-28.59-12.2-29.17-27.8-2.31-62.6 13.01-218.8 200.94-340.4 197.38-127.7 204.36-322 200.48-387.9-.76-12.7-11.25-22.7-24.05-22.7zM5855.77 14761.9c-12.79 0-23.29 10-24.04 22.7-3.88 65.9 3.09 260.2 200.48 387.9 187.92 121.6 203.25 277.8 200.93 340.4-.58 15.6-13.57 27.8-29.17 27.8h-67.83c-20.15 0-38.42 11.9-46.59 30.3l-25.56 57.5c-9.87 22.2-.54 48.2 21.17 59.1l118.26 59.2c12.67 6.3 14.91 23.2 4.7 33-58.01 55.9-93.37 135.3-90.83 222.9 4.43 152.9 128.02 279.8 280.78 288 171.73 9.3 313.82-127.2 313.82-296.9 0-84.4-35.22-160.6-91.72-214.7-10.04-9.6-8.09-26.1 4.11-32.7l107.34-58.2c20.84-11.3 29.48-36.8 19.86-58.4l-26.13-58.8c-8.19-18.4-26.45-30.3-46.61-30.3h-67.82c-15.6 0-28.59-12.2-29.17-27.8-2.31-62.6 13.01-218.8 200.94-340.4 197.38-127.7 204.36-322 200.47-387.9-.76-12.7-11.25-22.7-24.04-22.7zM8135.54 14761.9c-12.79 0-23.28 10-24.03 22.7-3.89 65.9 3.08 260.2 200.47 387.9 187.92 121.6 203.25 277.8 200.93 340.4-.57 15.6-13.56 27.8-29.16 27.8h-67.83c-20.15 0-38.42 11.9-46.6 30.3l-25.56 57.5c-9.86 22.2-.54 48.2 21.17 59.1l118.26 59.2c12.68 6.3 14.91 23.2 4.71 33-58.01 55.9-93.37 135.3-90.84 222.9 4.44 152.9 128.02 279.8 280.78 288 171.76 9.3 313.83-127.2 313.83-296.9 0-84.4-35.25-160.6-91.75-214.7-10.04-9.6-8.11-26.1 4.14-32.7l107.35-58.2c20.81-11.3 29.44-36.8 19.83-58.4l-26.08-58.8c-8.2-18.4-26.44-30.3-46.63-30.3h-67.86c-15.6 0-28.56-12.2-29.17-27.8-2.3-62.6 13.04-218.8 200.95-340.4 197.42-127.7 204.38-322 200.5-387.9-.79-12.7-11.28-22.7-24.06-22.7zM10415.3 14761.9c-12.8 0-23.2 10-24 22.7-3.9 65.9 3 260.2 200.5 387.9 187.9 121.6 203.2 277.8 200.9 340.4-.6 15.6-13.6 27.8-29.2 27.8h-67.8c-20.2 0-38.4 11.9-46.6 30.3l-25.6 57.5c-9.8 22.2-.5 48.2 21.2 59.1l118.2 59.2c12.7 6.3 15 23.2 4.8 33-58 55.9-93.4 135.3-90.9 222.9 4.5 152.9 128.1 279.8 280.8 288 171.7 9.3 313.9-127.2 313.9-296.9 0-84.4-35.3-160.6-91.8-214.7-10-9.6-8.1-26.1 4.2-32.7l107.3-58.2c20.8-11.3 29.5-36.8 19.8-58.4l-26.1-58.8c-8.2-18.4-26.5-30.3-46.6-30.3h-67.8c-15.6 0-28.6-12.2-29.2-27.8-2.3-62.6 13-218.8 200.9-340.4 197.4-127.7 204.4-322 200.6-387.9-.8-12.7-11.3-22.7-24.1-22.7zM12695.1 14761.9c-12.8 0-23.3 10-24 22.7-3.9 65.9 3 260.2 200.5 387.9 187.9 121.6 203.2 277.8 200.8 340.4-.5 15.6-13.5 27.8-29.1 27.8h-67.8c-20.2 0-38.4 11.9-46.6 30.3l-25.6 57.5c-9.9 22.2-.5 48.2 21.2 59.1l118.2 59.2c12.7 6.3 14.9 23.2 4.8 33-58.1 55.9-93.4 135.3-90.9 222.9 4.4 152.9 128 279.8 280.8 288 171.7 9.3 313.8-127.2 313.8-296.9 0-84.4-35.2-160.6-91.7-214.7-10-9.6-8.1-26.1 4.1-32.7l107.3-58.2c20.9-11.3 29.6-36.8 19.9-58.4l-26.1-58.8c-8.2-18.4-26.5-30.3-46.7-30.3h-67.7c-15.6 0-28.7-12.2-29.2-27.8-2.3-62.6 13-218.8 200.9-340.4 197.4-127.7 204.3-322 200.5-387.9-.7-12.7-11.2-22.7-24.1-22.7zM14974.8 14761.9c-12.7 0-23.2 10-23.9 22.7-3.9 65.9 3 260.2 200.4 387.9 187.9 121.6 203.2 277.8 200.9 340.4-.5 15.6-13.5 27.8-29.1 27.8h-67.8c-20.2 0-38.4 11.9-46.6 30.3l-25.6 57.5c-9.9 22.2-.5 48.2 21.2 59.1l118.2 59.2c12.7 6.3 14.9 23.2 4.7 33-58 55.9-93.3 135.3-90.8 222.9 4.4 152.9 128 279.8 280.7 288 171.8 9.3 313.9-127.2 313.9-296.9 0-84.4-35.3-160.6-91.8-214.7-9.9-9.6-8-26.1 4.2-32.7l107.3-58.2c20.8-11.3 29.5-36.8 19.9-58.4l-26.1-58.8c-8.2-18.4-26.5-30.3-46.7-30.3h-67.8c-15.6 0-28.6-12.2-29.1-27.8-2.4-62.6 13-218.8 200.9-340.4 197.4-127.7 204.3-322 200.5-387.9-.8-12.7-11.3-22.7-24.1-22.7z" style="fill:#100f0d;fill-opacity:1;fill-rule:nonzero;stroke:none" transform="matrix(.15128 0 0 -.15128 0 2973.333)"/><path d="M15297 13087.1c-11.3 0-20.6 8.8-21.3 20.2-3.4 58.3 2.7 230.6 177.8 343.9 166.6 107.8 180.2 246.2 178.1 301.7-.5 13.8-12 24.7-25.8 24.7h-60.2c-17.8 0-34.1 10.5-41.3 26.8l-22.6 51c-8.8 19.7-.6 42.7 18.7 52.4l104.9 52.5c11.2 5.6 13.2 20.5 4.1 29.2-51.4 49.6-82.7 120-80.5 197.6 4 135.6 113.5 248.1 248.9 255.4 152.3 8.2 278.3-112.8 278.3-263.2 0-74.9-31.3-142.5-81.4-190.4-8.9-8.5-7.2-23.1 3.7-29l95.2-51.6c18.4-10 26.1-32.6 17.5-51.8l-23.2-52.1c-7.2-16.3-23.4-26.8-41.2-26.8h-60.2c-13.8 0-25.3-10.9-25.8-24.7-2.1-55.5 11.5-193.9 178.1-301.7 175-113.3 181.2-285.6 177.8-343.9-.7-11.4-10-20.2-21.4-20.2z" style="fill:#100f0d;fill-opacity:1;fill-rule:nonzero;stroke:none" transform="matrix(.17064 0 0 -.17064 0 2973.333)"/><path d="M1470.71 3815.7c-14.51 0-26.42 11.3-27.28 25.8-4.4 74.7 3.51 295.3 227.46 440.2 213.23 137.9 230.62 315.1 227.99 386.1-.66 17.7-15.4 31.6-33.09 31.6h-76.96c-22.87 0-43.59 13.5-52.88 34.3l-29 65.3c-11.18 25.2-.6 54.7 24.03 67l134.17 67.2c14.39 7.2 16.93 26.3 5.34 37.5-65.82 63.4-105.93 153.5-103.05 252.8 5.03 173.5 145.25 317.6 318.56 326.9 194.86 10.5 356.07-144.3 356.07-336.9 0-95.8-39.95-182.3-104.05-243.7-11.39-10.8-9.2-29.5 4.66-37l121.79-66.1c23.64-12.8 33.45-41.7 22.52-66.2l-29.64-66.8c-9.29-20.8-30.01-34.3-52.88-34.3h-76.96c-17.7 0-32.43-13.9-33.09-31.6-2.63-71 14.76-248.2 227.99-386.1 223.95-144.9 231.86-365.5 227.45-440.2-.85-14.5-12.76-25.8-27.27-25.8z" style="fill:#fff;fill-opacity:1;fill-rule:nonzero;stroke:none" transform="matrix(.13333 0 0 -.13333 0 2973.333)"/><path d="M1470.71 3815.7c-14.51 0-26.42 11.3-27.28 25.8-4.4 74.7 3.51 295.3 227.46 440.2 213.23 137.9 230.62 315.1 227.99 386.1-.66 17.7-15.4 31.6-33.09 31.6h-76.96c-22.87 0-43.59 13.5-52.88 34.3l-29 65.3c-11.18 25.2-.6 54.7 24.03 67l134.17 67.2c14.39 7.2 16.93 26.3 5.34 37.5-65.82 63.4-105.93 153.5-103.05 252.8 5.03 173.5 145.25 317.6 318.56 326.9 194.86 10.5 356.07-144.3 356.07-336.9 0-95.8-39.95-182.3-104.05-243.7-11.39-10.8-9.2-29.5 4.66-37l121.79-66.1c23.64-12.8 33.45-41.7 22.52-66.2l-29.64-66.8c-9.29-20.8-30.01-34.3-52.88-34.3h-76.96c-17.7 0-32.43-13.9-33.09-31.6-2.63-71 14.76-248.2 227.99-386.1 223.95-144.9 231.86-365.5 227.45-440.2-.85-14.5-12.76-25.8-27.27-25.8z" style="fill:none;stroke:#100f0d;stroke-width:48.19879913;stroke-linecap:butt;stroke-linejoin:miter;stroke-miterlimit:10;stroke-dasharray:none;stroke-opacity:1" transform="matrix(.13333 0 0 -.13333 0 2973.333)"/><path d="M4057.38 3815.7c-14.51 0-26.42 11.3-27.27 25.8-4.41 74.7 3.5 295.3 227.45 440.2 213.23 137.9 230.62 315.1 227.99 386.1-.65 17.7-15.39 31.6-33.09 31.6h-76.96c-22.87 0-43.59 13.5-52.88 34.3l-29 65.3c-11.18 25.2-.6 54.7 24.03 67l134.17 67.2c14.39 7.2 16.93 26.3 5.34 37.5-65.81 63.4-105.93 153.5-103.05 252.8 5.03 173.5 145.25 317.6 318.57 326.9 194.85 10.5 356.07-144.3 356.07-336.9 0-95.8-39.96-182.3-104.06-243.7-11.39-10.8-9.19-29.5 4.66-37l121.79-66.1c23.64-12.8 33.45-41.7 22.52-66.2l-29.64-66.8c-9.29-20.8-30.01-34.3-52.88-34.3h-76.96c-17.69 0-32.43-13.9-33.09-31.6-2.63-71 14.76-248.2 227.99-386.1 223.95-144.9 231.87-365.5 227.46-440.2-.86-14.5-12.76-25.8-27.28-25.8z" style="fill:#fff;fill-opacity:1;fill-rule:nonzero;stroke:none" transform="matrix(.13333 0 0 -.13333 0 2973.333)"/><path d="M4057.38 3815.7c-14.51 0-26.42 11.3-27.27 25.8-4.41 74.7 3.5 295.3 227.45 440.2 213.23 137.9 230.62 315.1 227.99 386.1-.65 17.7-15.39 31.6-33.09 31.6h-76.96c-22.87 0-43.59 13.5-52.88 34.3l-29 65.3c-11.18 25.2-.6 54.7 24.03 67l134.17 67.2c14.39 7.2 16.93 26.3 5.34 37.5-65.81 63.4-105.93 153.5-103.05 252.8 5.03 173.5 145.25 317.6 318.57 326.9 194.85 10.5 356.07-144.3 356.07-336.9 0-95.8-39.96-182.3-104.06-243.7-11.39-10.8-9.19-29.5 4.66-37l121.79-66.1c23.64-12.8 33.45-41.7 22.52-66.2l-29.64-66.8c-9.29-20.8-30.01-34.3-52.88-34.3h-76.96c-17.69 0-32.43-13.9-33.09-31.6-2.63-71 14.76-248.2 227.99-386.1 223.95-144.9 231.87-365.5 227.46-440.2-.86-14.5-12.76-25.8-27.28-25.8z" style="fill:none;stroke:#100f0d;stroke-width:48.19879913;stroke-linecap:butt;stroke-linejoin:miter;stroke-miterlimit:10;stroke-dasharray:none;stroke-opacity:1" transform="matrix(.13333 0 0 -.13333 0 2973.333)"/><path d="M6644.05 3815.7c-14.51 0-26.42 11.3-27.27 25.8-4.41 74.7 3.5 295.3 227.46 440.2 213.22 137.9 230.61 315.1 227.98 386.1-.65 17.7-15.39 31.6-33.09 31.6h-76.96c-22.87 0-43.59 13.5-52.87 34.3l-29 65.3c-11.19 25.2-.61 54.7 24.02 67l134.18 67.2c14.38 7.2 16.92 26.3 5.34 37.5-65.82 63.4-105.94 153.5-103.06 252.8 5.03 173.5 145.25 317.6 318.57 326.9 194.85 10.5 356.07-144.3 356.07-336.9 0-95.8-39.96-182.3-104.06-243.7-11.39-10.8-9.19-29.5 4.66-37l121.79-66.1c23.64-12.8 33.45-41.7 22.53-66.2l-29.65-66.8c-9.29-20.8-30.01-34.3-52.88-34.3h-76.95c-17.7 0-32.44-13.9-33.1-31.6-2.62-71 14.76-248.2 227.99-386.1 223.95-144.9 231.87-365.5 227.46-440.2-.86-14.5-12.76-25.8-27.28-25.8z" style="fill:#fff;fill-opacity:1;fill-rule:nonzero;stroke:none" transform="matrix(.13333 0 0 -.13333 0 2973.333)"/><path d="M6644.05 3815.7c-14.51 0-26.42 11.3-27.27 25.8-4.41 74.7 3.5 295.3 227.46 440.2 213.22 137.9 230.61 315.1 227.98 386.1-.65 17.7-15.39 31.6-33.09 31.6h-76.96c-22.87 0-43.59 13.5-52.87 34.3l-29 65.3c-11.19 25.2-.61 54.7 24.02 67l134.18 67.2c14.38 7.2 16.92 26.3 5.34 37.5-65.82 63.4-105.94 153.5-103.06 252.8 5.03 173.5 145.25 317.6 318.57 326.9 194.85 10.5 356.07-144.3 356.07-336.9 0-95.8-39.96-182.3-104.06-243.7-11.39-10.8-9.19-29.5 4.66-37l121.79-66.1c23.64-12.8 33.45-41.7 22.53-66.2l-29.65-66.8c-9.29-20.8-30.01-34.3-52.88-34.3h-76.95c-17.7 0-32.44-13.9-33.1-31.6-2.62-71 14.76-248.2 227.99-386.1 223.95-144.9 231.87-365.5 227.46-440.2-.86-14.5-12.76-25.8-27.28-25.8z" style="fill:none;stroke:#100f0d;stroke-width:48.19879913;stroke-linecap:butt;stroke-linejoin:miter;stroke-miterlimit:10;stroke-dasharray:none;stroke-opacity:1" transform="matrix(.13333 0 0 -.13333 0 2973.333)"/><path d="M9230.72 3815.7c-14.51 0-26.42 11.3-27.27 25.8-4.41 74.7 3.5 295.3 227.46 440.2 213.22 137.9 230.61 315.1 227.98 386.1-.65 17.7-15.39 31.6-33.09 31.6h-76.96c-22.86 0-43.59 13.5-52.87 34.3l-29 65.3c-11.19 25.2-.61 54.7 24.02 67l134.18 67.2c14.38 7.2 16.92 26.3 5.34 37.5-65.82 63.4-105.94 153.5-103.06 252.8 5.03 173.5 145.25 317.6 318.57 326.9 194.88 10.5 356.08-144.3 356.08-336.9 0-95.8-40-182.3-104.1-243.7-11.4-10.8-9.2-29.5 4.7-37l121.8-66.1c23.6-12.8 33.4-41.7 22.5-66.2l-29.6-66.8c-9.3-20.8-30-34.3-52.9-34.3h-77c-17.7 0-32.4-13.9-33.1-31.6-2.6-71 14.8-248.2 228-386.1 224-144.9 231.9-365.5 227.5-440.2-.9-14.5-12.8-25.8-27.3-25.8z" style="fill:#fff;fill-opacity:1;fill-rule:nonzero;stroke:none" transform="matrix(.13333 0 0 -.13333 0 2973.333)"/><path d="M9230.72 3815.7c-14.51 0-26.42 11.3-27.27 25.8-4.41 74.7 3.5 295.3 227.46 440.2 213.22 137.9 230.61 315.1 227.98 386.1-.65 17.7-15.39 31.6-33.09 31.6h-76.96c-22.86 0-43.59 13.5-52.87 34.3l-29 65.3c-11.19 25.2-.61 54.7 24.02 67l134.18 67.2c14.38 7.2 16.92 26.3 5.34 37.5-65.82 63.4-105.94 153.5-103.06 252.8 5.03 173.5 145.25 317.6 318.57 326.9 194.88 10.5 356.08-144.3 356.08-336.9 0-95.8-40-182.3-104.1-243.7-11.4-10.8-9.2-29.5 4.7-37l121.8-66.1c23.6-12.8 33.4-41.7 22.5-66.2l-29.6-66.8c-9.3-20.8-30-34.3-52.9-34.3h-77c-17.7 0-32.4-13.9-33.1-31.6-2.6-71 14.8-248.2 228-386.1 224-144.9 231.9-365.5 227.5-440.2-.9-14.5-12.8-25.8-27.3-25.8z" style="fill:none;stroke:#100f0d;stroke-width:48.19879913;stroke-linecap:butt;stroke-linejoin:miter;stroke-miterlimit:10;stroke-dasharray:none;stroke-opacity:1" transform="matrix(.13333 0 0 -.13333 0 2973.333)"/><path d="M11817.4 3815.7c-14.5 0-26.4 11.3-27.3 25.8-4.4 74.7 3.5 295.3 227.5 440.2 213.2 137.9 230.6 315.1 228 386.1-.7 17.7-15.4 31.6-33.1 31.6h-77c-22.9 0-43.6 13.5-52.9 34.3l-29 65.3c-11.1 25.2-.6 54.7 24.1 67l134.1 67.2c14.4 7.2 17 26.3 5.4 37.5-65.8 63.4-106 153.5-103.1 252.8 5.1 173.5 145.3 317.6 318.6 326.9 194.8 10.5 356.1-144.3 356.1-336.9 0-95.8-40-182.3-104.1-243.7-11.4-10.8-9.2-29.5 4.7-37l121.8-66.1c23.6-12.8 33.4-41.7 22.5-66.2l-29.7-66.8c-9.3-20.8-30-34.3-52.8-34.3h-77c-17.7 0-32.4-13.9-33.1-31.6-2.6-71 14.8-248.2 228-386.1 223.9-144.9 231.9-365.5 227.5-440.2-.9-14.5-12.8-25.8-27.3-25.8z" style="fill:#fff;fill-opacity:1;fill-rule:nonzero;stroke:none" transform="matrix(.13333 0 0 -.13333 0 2973.333)"/><path d="M11817.4 3815.7c-14.5 0-26.4 11.3-27.3 25.8-4.4 74.7 3.5 295.3 227.5 440.2 213.2 137.9 230.6 315.1 228 386.1-.7 17.7-15.4 31.6-33.1 31.6h-77c-22.9 0-43.6 13.5-52.9 34.3l-29 65.3c-11.1 25.2-.6 54.7 24.1 67l134.1 67.2c14.4 7.2 17 26.3 5.4 37.5-65.8 63.4-106 153.5-103.1 252.8 5.1 173.5 145.3 317.6 318.6 326.9 194.8 10.5 356.1-144.3 356.1-336.9 0-95.8-40-182.3-104.1-243.7-11.4-10.8-9.2-29.5 4.7-37l121.8-66.1c23.6-12.8 33.4-41.7 22.5-66.2l-29.7-66.8c-9.3-20.8-30-34.3-52.8-34.3h-77c-17.7 0-32.4-13.9-33.1-31.6-2.6-71 14.8-248.2 228-386.1 223.9-144.9 231.9-365.5 227.5-440.2-.9-14.5-12.8-25.8-27.3-25.8z" style="fill:none;stroke:#100f0d;stroke-width:48.19879913;stroke-linecap:butt;stroke-linejoin:miter;stroke-miterlimit:10;stroke-dasharray:none;stroke-opacity:1" transform="matrix(.13333 0 0 -.13333 0 2973.333)"/><path d="M14404.1 3815.7c-14.5 0-26.5 11.3-27.3 25.8-4.4 74.7 3.5 295.3 227.5 440.2 213.2 137.9 230.6 315.1 227.9 386.1-.6 17.7-15.4 31.6-33.1 31.6h-76.9c-22.9 0-43.6 13.5-52.9 34.3l-29 65.3c-11.2 25.2-.6 54.7 24 67l134.2 67.2c14.4 7.2 16.9 26.3 5.4 37.5-65.9 63.4-106 153.5-103.1 252.8 5 173.5 145.2 317.6 318.6 326.9 194.8 10.5 356-144.3 356-336.9 0-95.8-39.9-182.3-104-243.7-11.4-10.8-9.2-29.5 4.6-37l121.8-66.1c23.7-12.8 33.5-41.7 22.6-66.2l-29.7-66.8c-9.3-20.8-30-34.3-52.9-34.3h-76.9c-17.7 0-32.5-13.9-33.1-31.6-2.6-71 14.7-248.2 228-386.1 223.9-144.9 231.8-365.5 227.4-440.2-.8-14.5-12.7-25.8-27.3-25.8z" style="fill:#fff;fill-opacity:1;fill-rule:nonzero;stroke:none" transform="matrix(.13333 0 0 -.13333 0 2973.333)"/><path d="M14404.1 3815.7c-14.5 0-26.5 11.3-27.3 25.8-4.4 74.7 3.5 295.3 227.5 440.2 213.2 137.9 230.6 315.1 227.9 386.1-.6 17.7-15.4 31.6-33.1 31.6h-76.9c-22.9 0-43.6 13.5-52.9 34.3l-29 65.3c-11.2 25.2-.6 54.7 24 67l134.2 67.2c14.4 7.2 16.9 26.3 5.4 37.5-65.9 63.4-106 153.5-103.1 252.8 5 173.5 145.2 317.6 318.6 326.9 194.8 10.5 356-144.3 356-336.9 0-95.8-39.9-182.3-104-243.7-11.4-10.8-9.2-29.5 4.6-37l121.8-66.1c23.7-12.8 33.5-41.7 22.6-66.2l-29.7-66.8c-9.3-20.8-30-34.3-52.9-34.3h-76.9c-17.7 0-32.5-13.9-33.1-31.6-2.6-71 14.7-248.2 228-386.1 223.9-144.9 231.8-365.5 227.4-440.2-.8-14.5-12.7-25.8-27.3-25.8z" style="fill:none;stroke:#100f0d;stroke-width:48.19879913;stroke-linecap:butt;stroke-linejoin:miter;stroke-miterlimit:10;stroke-dasharray:none;stroke-opacity:1" transform="matrix(.13333 0 0 -.13333 0 2973.333)"/><path d="M15155.1 3403.46c-13 0-23.6 10.08-24.3 23.02-3.9 66.62 3.1 263.39 202.8 392.64 190.2 123 205.7 281.06 203.4 344.39-.5 15.78-13.7 28.18-29.5 28.18h-68.6c-20.4 0-38.9 12.04-47.2 30.59l-25.9 58.25c-9.9 22.48-.5 48.79 21.5 59.76l119.7 59.94c12.8 6.43 15 23.46 4.7 33.45-58.7 56.55-94.5 136.92-91.9 225.49 4.5 154.75 129.5 283.29 284.1 291.58 173.8 9.37 317.6-128.71 317.6-300.5 0-85.45-35.6-162.61-92.8-217.37-10.1-9.64-8.1-26.31 4.2-33l108.6-58.96c21.1-11.42 29.8-37.2 20.1-59.05l-26.4-59.59c-8.3-18.55-26.8-30.59-47.2-30.59h-68.7c-15.8 0-28.9-12.4-29.4-28.18-2.4-63.33 13.1-221.39 203.3-344.39 199.8-129.25 206.8-326.02 202.9-392.64-.8-12.94-11.4-23.02-24.4-23.02z" style="fill:#fff;fill-opacity:1;fill-rule:nonzero;stroke:none" transform="matrix(.14948 0 0 -.14948 0 2973.333)"/><path d="M15155.1 3403.46c-13 0-23.6 10.08-24.3 23.02-3.9 66.62 3.1 263.39 202.8 392.64 190.2 123 205.7 281.06 203.4 344.39-.5 15.78-13.7 28.18-29.5 28.18h-68.6c-20.4 0-38.9 12.04-47.2 30.59l-25.9 58.25c-9.9 22.48-.5 48.79 21.5 59.76l119.7 59.94c12.8 6.43 15 23.46 4.7 33.45-58.7 56.55-94.5 136.92-91.9 225.49 4.5 154.75 129.5 283.29 284.1 291.58 173.8 9.37 317.6-128.71 317.6-300.5 0-85.45-35.6-162.61-92.8-217.37-10.1-9.64-8.1-26.31 4.2-33l108.6-58.96c21.1-11.42 29.8-37.2 20.1-59.05l-26.4-59.59c-8.3-18.55-26.8-30.59-47.2-30.59h-68.7c-15.8 0-28.9-12.4-29.4-28.18-2.4-63.33 13.1-221.39 203.3-344.39 199.8-129.25 206.8-326.02 202.9-392.64-.8-12.94-11.4-23.02-24.4-23.02z" style="fill:none;stroke:#100f0d;stroke-width:42.99150085;stroke-linecap:butt;stroke-linejoin:miter;stroke-miterlimit:10;stroke-dasharray:none;stroke-opacity:1" transform="matrix(.14948 0 0 -.14948 0 2973.333)"/><path d="M15297 2981.44c-11.3 0-20.6 8.83-21.3 20.16-3.4 58.37 2.7 230.74 177.8 343.96 166.6 107.75 180.2 246.21 178.1 301.68-.5 13.83-12 24.69-25.8 24.69h-60.2c-17.8 0-34.1 10.55-41.3 26.8l-22.6 51.03c-8.8 19.69-.6 42.74 18.7 52.35l104.9 52.51c11.2 5.62 13.2 20.55 4.1 29.3-51.4 49.54-82.7 119.94-80.5 197.53 4 135.56 113.5 248.16 248.9 255.43 152.3 8.2 278.3-112.76 278.3-263.25 0-74.85-31.3-142.44-81.4-190.41-8.9-8.44-7.2-23.05 3.7-28.92l95.2-51.64c18.4-10 26.1-32.59 17.5-51.73l-23.2-52.2c-7.2-16.25-23.4-26.8-41.2-26.8h-60.2c-13.8 0-25.3-10.86-25.8-24.69-2.1-55.47 11.5-193.93 178.1-301.68 175-113.22 181.2-285.59 177.8-343.96-.7-11.33-10-20.16-21.4-20.16z" style="fill:#fff;fill-opacity:1;fill-rule:nonzero;stroke:none" transform="matrix(.17064 0 0 -.17064 0 2973.333)"/><path d="M15297 2981.44c-11.3 0-20.6 8.83-21.3 20.16-3.4 58.37 2.7 230.74 177.8 343.96 166.6 107.75 180.2 246.21 178.1 301.68-.5 13.83-12 24.69-25.8 24.69h-60.2c-17.8 0-34.1 10.55-41.3 26.8l-22.6 51.03c-8.8 19.69-.6 42.74 18.7 52.35l104.9 52.51c11.2 5.62 13.2 20.55 4.1 29.3-51.4 49.54-82.7 119.94-80.5 197.53 4 135.56 113.5 248.16 248.9 255.43 152.3 8.2 278.3-112.76 278.3-263.25 0-74.85-31.3-142.44-81.4-190.41-8.9-8.44-7.2-23.05 3.7-28.92l95.2-51.64c18.4-10 26.1-32.59 17.5-51.73l-23.2-52.2c-7.2-16.25-23.4-26.8-41.2-26.8h-60.2c-13.8 0-25.3-10.86-25.8-24.69-2.1-55.47 11.5-193.93 178.1-301.68 175-113.22 181.2-285.59 177.8-343.96-.7-11.33-10-20.16-21.4-20.16z" style="fill:none;stroke:#100f0d;stroke-width:37.66070175;stroke-linecap:butt;stroke-linejoin:miter;stroke-miterlimit:10;stroke-dasharray:none;stroke-opacity:1" transform="matrix(.17064 0 0 -.17064 0 2973.333)"/><path d="M16300 14905.2h-1138.4v134.4c0 112.3 91.1 203.3 203.4 203.3h731.6c112.3 0 203.4-91 203.4-203.3z" style="fill:#100f0d;fill-opacity:1;fill-rule:nonzero;stroke:none" transform="matrix(.17124 0 0 -.17124 0 2973.333)"/><path d="M16300 15264.7h-846l91.4 808h663.2z" style="fill:#100f0d;fill-opacity:1;fill-rule:nonzero;stroke:none" transform="matrix(.16967 0 0 -.16967 0 2973.333)"/><path d="M15844.8 15763.7h-324.2l23.8 512.2c.6 13.5 11.7 24.1 25.2 24.1h226.1c13.5 0 24.6-10.6 25.3-24.1z" style="fill:#100f0d;fill-opacity:1;fill-rule:nonzero;stroke:none" transform="matrix(.17177 0 0 -.17177 0 2973.333)"/><path d="m16008.3 15814.7 105.2 105.2c28.8 28.8 45.7 67.3 47.3 108l8.4 209.6c.9 22.3-15.5 41.6-37.6 44.3l-125.4 15.7c-19.9 2.5-38.4-10.8-42.3-30.5l-28.2-140.8c-1.3-6.8-7.2-11.7-14.1-11.7H15483c-6.8 0-12.8 4.9-14.1 11.7l-28.2 140.8c-3.9 19.7-22.3 33-42.3 30.5l-125.4-15.7c-22.1-2.7-38.5-22-37.5-44.3l8.3-209.6c1.6-40.7 18.6-79.2 47.3-108l105.2-105.2z" style="fill:#100f0d;fill-opacity:1;fill-rule:nonzero;stroke:none" transform="matrix(.17149 0 0 -.17149 0 2973.333)"/><path d="M2354.37 15938.8H1137.05v143.7c0 120.1 97.36 217.5 217.46 217.5h782.41c120.09 0 217.45-97.4 217.45-217.5z" style="fill:#100f0d;fill-opacity:1;fill-rule:nonzero;stroke:none" transform="matrix(.16014 0 0 -.16014 0 2973.333)"/><path d="M2099.92 15480.5h-857.89l92.63 819.5h672.63z" style="fill:#100f0d;fill-opacity:1;fill-rule:nonzero;stroke:none" transform="matrix(.1673 0 0 -.1673 0 2973.333)"/><path d="M1789.63 15763.7h-324.25l23.82 512.2c.62 13.5 11.75 24.1 25.26 24.1h226.1c13.51 0 24.63-10.6 25.25-24.1z" style="fill:#100f0d;fill-opacity:1;fill-rule:nonzero;stroke:none" transform="matrix(.17177 0 0 -.17177 0 2973.333)"/><path d="m1930 15814.7 105.12 105.2c28.79 28.8 45.69 67.3 47.31 108l8.38 209.6c.9 22.3-15.43 41.6-37.57 44.3l-125.4 15.7c-19.91 2.5-38.37-10.8-42.3-30.5l-28.17-140.8c-1.35-6.8-7.28-11.7-14.16-11.7h-438.53c-6.88 0-12.81 4.9-14.16 11.7l-28.17 140.8c-3.93 19.7-22.39 33-42.3 30.5l-125.4-15.7c-22.13-2.7-38.46-22-37.57-44.3l8.38-209.6c1.63-40.7 18.52-79.2 47.32-108l105.11-105.2z" style="fill:#100f0d;fill-opacity:1;fill-rule:nonzero;stroke:none" transform="matrix(.17149 0 0 -.17149 0 2973.333)"/><path d="M4605.29 15938.8H3387.98v143.7c0 120.1 97.35 217.5 217.44 217.5h782.43c120.09 0 217.44-97.4 217.44-217.5z" style="fill:#100f0d;fill-opacity:1;fill-rule:nonzero;stroke:none" transform="matrix(.16014 0 0 -.16014 0 2973.333)"/><path d="M3417.08 15867.2c-49.3 12.3-73.94-24.7-73.94-24.7 12.32 49.3 61.62 135.6 110.91 98.6 49.3-36.9 12.33-86.2-36.97-73.9m764.09-283.5c-21.44 407.7-472.75 525.9-589.09 549.7a81.3 81.3 0 0 0-46.09 27.6l-82.2 98.6c-33.64 40.4-99.09 23.8-109.44-27.8l-20.7-104.1c-1.85-9-6.66-17-13.81-22.8-36.11-29.3-149.24-126.3-149.24-188.4v-2.2c-.37-50.7-17.87-99.6-48.19-140.2l-155.9-207.9c-42.76-56.8-27.61-138.1 32.79-175.8l82.2-51.4c56.44-35.3 130.75-19.3 167.72 36.1l43.76 65.7c7.88 11.8 21.56 17.8 35.61 16.5 141.11-13.8 227.63 99.2 259.42 150.8 7.03 11.5 23.91 10.1 28.96-2.2 19.6-47.3 33.04-151.3-138.27-268.7-234.16-160.2-221.83-382-221.83-382h767.91s181.04 160.2 156.39 628.5" style="fill:#100f0d;fill-opacity:1;fill-rule:nonzero;stroke:none" transform="matrix(.17382 0 0 -.17382 0 2973.333)"/><path d="M15373.8 15938.8h-1217.3v143.7c0 120.1 97.4 217.5 217.5 217.5h782.4c120.1 0 217.4-97.4 217.4-217.5z" style="fill:#100f0d;fill-opacity:1;fill-rule:nonzero;stroke:none" transform="matrix(.16014 0 0 -.16014 0 2973.333)"/><path d="M13338 15867.2c-49.4 12.3-74-24.7-74-24.7 12.3 49.3 61.6 135.6 110.9 98.6 49.3-36.9 12.3-86.2-36.9-73.9m764-283.5c-21.4 407.7-472.7 525.9-589.1 549.7-18 3.7-34.3 13.4-46.1 27.6l-82.2 98.6c-33.6 40.4-99 23.8-109.4-27.8l-20.7-104.1c-1.8-9-6.7-17-13.8-22.8-36.1-29.3-149.3-126.3-149.3-188.4v-2.2c-.4-50.7-17.9-99.6-48.2-140.2l-155.8-207.9c-42.8-56.8-27.6-138.1 32.7-175.8l82.3-51.4c56.4-35.3 130.7-19.3 167.6 36.1l43.8 65.7c7.9 11.8 21.6 17.8 35.6 16.5 141.2-13.8 227.6 99.2 259.5 150.8 6.9 11.5 23.9 10.1 28.9-2.2 19.6-47.3 33-151.3-138.2-268.7-234.2-160.2-221.9-382-221.9-382h767.9s181.1 160.2 156.4 628.5" style="fill:#100f0d;fill-opacity:1;fill-rule:nonzero;stroke:none" transform="matrix(.17382 0 0 -.17382 0 2973.333)"/><path d="M6661.8 15938.8H5444.48v143.7c0 120.1 97.35 217.5 217.45 217.5h782.42c120.09 0 217.45-97.4 217.45-217.5z" style="fill:#100f0d;fill-opacity:1;fill-rule:nonzero;stroke:none" transform="matrix(.16014 0 0 -.16014 0 2973.333)"/><path d="M5316.81 14972.1s-201.07 123-225.66 455.1c-20.92 282.4 242.86 511.4 322.15 573.5 11.57 9.1 14.51 25.5 6.55 37.9-25.36 39.4-64.01 126.6 27.92 200.2 76.52 61.2 162.57 12.9 216.65-32.3 31-25.9 36.3-71.6 12.07-103.9-70.9-94.6-205.76-320.7-192.58-659 .35-9.2 7.98-16.4 17.12-16.4h124.99c9.88 0 17.69 8.2 17 18.1-4.99 71.4-14.57 337.3 101.54 508 5.44 8 16.94 8.8 23.61 1.8 82.48-86.4 514.88-582.6 11.63-1007.5z" style="fill:#100f0d;fill-opacity:1;fill-rule:nonzero;stroke:none" transform="matrix(.1742 0 0 -.1742 0 2973.333)"/><path d="M13122.9 15938.8h-1217.3v143.7c0 120.1 97.4 217.5 217.5 217.5h782.4c120.1 0 217.4-97.4 217.4-217.5z" style="fill:#100f0d;fill-opacity:1;fill-rule:nonzero;stroke:none" transform="matrix(.16014 0 0 -.16014 0 2973.333)"/><path d="M11256.5 14972.1s-201.1 123-225.7 455.1c-20.9 282.4 242.8 511.4 322.1 573.5 11.7 9.1 14.6 25.5 6.6 37.9-25.3 39.4-64 126.6 28 200.2 76.4 61.2 162.5 12.9 216.6-32.3 31-25.9 36.3-71.6 12.1-103.9-70.9-94.6-205.8-320.7-192.6-659 .4-9.2 7.9-16.4 17.1-16.4h125c9.9 0 17.7 8.2 17 18.1-5 71.4-14.6 337.3 101.5 508 5.4 8 17 8.8 23.7 1.8 82.4-86.4 514.8-582.6 11.6-1007.5z" style="fill:#100f0d;fill-opacity:1;fill-rule:nonzero;stroke:none" transform="matrix(.1742 0 0 -.1742 0 2973.333)"/><path d="M8815.52 15938.8H7598.2v143.7c0 120.1 97.35 217.5 217.44 217.5h782.41c120.14 0 217.47-97.4 217.47-217.5z" style="fill:#100f0d;fill-opacity:1;fill-rule:nonzero;stroke:none" transform="matrix(.16014 0 0 -.16014 0 2973.333)"/><path d="M7531.49 16110.2c-3.5-99.4-86.92-177.2-186.33-173.7s-177.15 86.9-173.66 186.3c3.5 99.4 86.92 177.2 186.34 173.7 99.4-3.5 177.15-86.9 173.65-186.3" style="fill:#100f0d;fill-opacity:1;fill-rule:nonzero;stroke:none" transform="matrix(.17352 0 0 -.17352 0 2973.333)"/><path d="M7279.29 16120.8c-3.3-93.8-82.04-167.2-175.88-163.9-93.83 3.3-167.22 82-163.92 175.9 3.31 93.8 82.05 167.2 175.89 163.9 93.83-3.3 167.21-82.1 163.91-175.9" style="fill:#100f0d;fill-opacity:1;fill-rule:nonzero;stroke:none" transform="matrix(.1701 0 0 -.1701 0 2973.333)"/><path d="M7615.93 16110.2c3.49-99.4 86.89-177.2 186.32-173.7s177.19 86.9 173.66 186.3c-3.46 99.4-86.91 177.2-186.33 173.7-99.44-3.5-177.16-86.9-173.65-186.3" style="fill:#100f0d;fill-opacity:1;fill-rule:nonzero;stroke:none" transform="matrix(.17352 0 0 -.17352 0 2973.333)"/><path d="M8173.74 16120.8c3.29-93.8 81.99-167.2 175.82-163.9 93.84 3.3 167.29 82 163.99 175.9-3.36 93.8-82.07 167.2-175.9 163.9s-167.2-82.1-163.91-175.9" style="fill:#100f0d;fill-opacity:1;fill-rule:nonzero;stroke:none" transform="matrix(.1701 0 0 -.1701 0 2973.333)"/><path d="m7150.28 16037 232.62-288.1v551.1l162.82-50.1 68.88-211.5 68.88-211.5 68.88 211.5 68.89 211.5 162.84 50.1v-551.1l232.61 288.1 130.57-112.7-338.16-776.5h-651.25l-338.15 776.5z" style="fill:#100f0d;fill-opacity:1;fill-rule:nonzero;stroke:none" transform="matrix(.17105 0 0 -.17105 0 2973.333)"/><path d="M10969.3 15938.8H9751.89v143.7c0 120.1 97.33 217.5 217.48 217.5h782.43c120 0 217.5-97.4 217.5-217.5z" style="fill:#100f0d;fill-opacity:1;fill-rule:nonzero;stroke:none" transform="matrix(.16014 0 0 -.16014 0 2973.333)"/><path d="m10099.1 15686.8-130.6-163.3c-12.39-15.4-31.08-24.4-50.71-24.4h-53.2c-8.72 0-15.73 7-15.73 15.7v258.2c0 5.8 1.87 11.2 5.45 15.5 19.4 23.3 87.47 94.5 182.29 73.5 112.6-25 112.6-112.6 62.5-175.2m-563.14-172c0-8.7-7.01-15.7-15.73-15.7h-53.2c-19.63 0-38.32 9-50.71 24.4l-130.62 163.3c-50.09 62.6-50.09 150.2 62.54 175.2 94.72 21 162.8-50.2 182.2-73.5 3.66-4.3 5.52-9.7 5.52-15.5zm901.04 434.8c-150.2 350.4-625.69 125.1-625.69 125.1h-237.8s-475.54 225.3-625.71-125.1c-150.18-350.4 300.35-538.1 375.44-775.9h738.36c75.1 237.8 525.6 425.5 375.4 775.9" style="fill:#100f0d;fill-opacity:1;fill-rule:nonzero;stroke:none" transform="matrix(.17118 0 0 -.17118 0 2973.333)"/><path d="M9838.21 16088.9h-439.29c-9.05 0-16.31 7.3-16.31 16.3v178.5c0 9 7.26 16.3 16.31 16.3h439.29c8.96 0 16.31-7.3 16.31-16.3v-178.5c0-9-7.35-16.3-16.31-16.3" style="fill:#100f0d;fill-opacity:1;fill-rule:nonzero;stroke:none" transform="matrix(.1725 0 0 -.1725 0 2973.333)"/><path d="M9663.07 15684.2h-248.9c-9.35 0-16.71 7.9-16.17 17.2l35.03 583.4c.53 8.5 7.59 15.2 16.17 15.2h178.84c8.59 0 15.64-6.7 16.18-15.2l35.03-583.4c.53-9.3-6.9-17.2-16.18-17.2" style="fill:#100f0d;fill-opacity:1;fill-rule:nonzero;stroke:none" transform="matrix(.17394 0 0 -.17394 0 2973.333)"/><path d="m16136.9 1140.61-71.5 632.55 70.9 70.93c28.8 28.81 45.7 67.51 47.4 108.23l8.4 209.92c.8 22.27-15.5 41.58-37.7 44.38l-125.5 15.65c-19.9 2.49-38.5-10.83-42.4-30.52l-28.2-141.09c-1.4-6.7-7.3-11.6-14.2-11.6h-65.8l-8.8 188.5c-.6 13.55-11.8 24.14-25.3 24.14h-226.8c-13.6 0-24.7-10.59-25.3-24.14l-8.8-188.5h-78.3c-6.9 0-12.9 4.9-14.2 11.6l-28.2 141.09c-4 19.69-22.4 33.01-42.4 30.52l-125.6-15.65c-22.1-2.8-38.5-22.11-37.6-44.38l8.4-209.92c1.6-40.72 18.6-79.42 47.4-108.23l82.1-82.14-70.2-621.34c-93-18.69-163.1-100.84-163.1-199.334V806.887H16300v134.389c0 98.494-70.1 180.644-163.1 199.334" style="fill:#fff;fill-opacity:1;fill-rule:nonzero;stroke:none" transform="matrix(.17124 0 0 -.17124 0 2973.333)"/><path d="m16136.9 1140.61-71.5 632.55 70.9 70.93c28.8 28.81 45.7 67.51 47.4 108.23l8.4 209.92c.8 22.27-15.5 41.58-37.7 44.38l-125.5 15.65c-19.9 2.49-38.5-10.83-42.4-30.52l-28.2-141.09c-1.4-6.7-7.3-11.6-14.2-11.6h-65.8l-8.8 188.5c-.6 13.55-11.8 24.14-25.3 24.14h-226.8c-13.6 0-24.7-10.59-25.3-24.14l-8.8-188.5h-78.3c-6.9 0-12.9 4.9-14.2 11.6l-28.2 141.09c-4 19.69-22.4 33.01-42.4 30.52l-125.6-15.65c-22.1-2.8-38.5-22.11-37.6-44.38l8.4-209.92c1.6-40.72 18.6-79.42 47.4-108.23l82.1-82.14-70.2-621.34c-93-18.69-163.1-100.84-163.1-199.334V806.887H16300v134.389c0 98.494-70.1 180.644-163.1 199.334z" style="fill:none;stroke:#100f0d;stroke-width:37.52870178;stroke-linecap:butt;stroke-linejoin:miter;stroke-miterlimit:10;stroke-dasharray:none;stroke-opacity:1" transform="matrix(.17124 0 0 -.17124 0 2973.333)"/><path d="m2618.2 1464.9-91.83 812.4 91.07 91.1c37.03 37 58.76 86.7 60.85 139l10.78 269.6c1.15 28.6-19.85 53.4-48.32 57l-161.28 20.1c-25.61 3.2-49.35-13.9-54.41-39.2l-36.23-181.2c-1.74-8.6-9.36-14.9-18.21-14.9h-84.54l-11.26 242.1c-.8 17.4-15.13 31-32.53 31h-291.28c-17.4 0-31.73-13.6-32.53-31l-11.26-242.1h-100.61c-8.85 0-16.47 6.3-18.21 14.9l-36.23 181.2c-5.06 25.3-28.8 42.4-54.41 39.2l-161.27-20.1c-28.47-3.6-49.48-28.4-48.33-57l10.78-269.6c2.1-52.3 23.82-102 60.86-139l105.5-105.5-90.2-798c-119.47-24-209.47-129.5-209.47-256v-172.6h1462.04v172.6c0 126.5-90 232-209.47 256" style="fill:#fff;fill-opacity:1;fill-rule:nonzero;stroke:none" transform="matrix(.13333 0 0 -.13333 0 2973.333)"/><path d="m2618.2 1464.9-91.83 812.4 91.07 91.1c37.03 37 58.76 86.7 60.85 139l10.78 269.6c1.15 28.6-19.85 53.4-48.32 57l-161.28 20.1c-25.61 3.2-49.35-13.9-54.41-39.2l-36.23-181.2c-1.74-8.6-9.36-14.9-18.21-14.9h-84.54l-11.26 242.1c-.8 17.4-15.13 31-32.53 31h-291.28c-17.4 0-31.73-13.6-32.53-31l-11.26-242.1h-100.61c-8.85 0-16.47 6.3-18.21 14.9l-36.23 181.2c-5.06 25.3-28.8 42.4-54.41 39.2l-161.27-20.1c-28.47-3.6-49.48-28.4-48.33-57l10.78-269.6c2.1-52.3 23.82-102 60.86-139l105.5-105.5-90.2-798c-119.47-24-209.47-129.5-209.47-256v-172.6h1462.04v172.6c0 126.5-90 232-209.47 256z" style="fill:none;stroke:#100f0d;stroke-width:48.19879913;stroke-linecap:butt;stroke-linejoin:miter;stroke-miterlimit:10;stroke-dasharray:none;stroke-opacity:1" transform="matrix(.13333 0 0 -.13333 0 2973.333)"/><path d="M4454.7 2578.6c-64.27 16.1-96.4-32.1-96.4-32.1 16.06 64.3 80.33 176.7 144.59 128.5 64.27-48.2 16.07-112.4-48.19-96.4m852.54-1111.5c67.54 107.3 164.96 335.5 143.57 742-27.96 531.5-616.31 685.6-767.97 716.6-23.46 4.8-44.67 17.5-60.09 36l-107.16 128.5c-43.86 52.7-129.18 31-142.67-36.2l-26.99-135.7c-2.41-11.7-8.68-22.2-18-29.7-47.07-38.3-194.56-164.7-194.56-245.7v-2.9c-.48-66-23.3-129.8-62.82-182.7l-203.24-271c-55.75-74.1-35.99-180.1 42.74-229.3l107.16-67c73.58-45.9 170.46-25 218.66 47.1l57.04 85.6c10.28 15.5 28.11 23.3 46.43 21.6 183.96-18 296.74 129.3 338.19 196.6 9.16 15 31.17 13.2 37.76-2.9 25.55-61.7 43.06-197.3-180.26-350.2-213.94-146.4-269.99-332.1-284.42-430.2-105.28-33.7-181.55-132.2-181.55-248.7v-172.6h1462.03v172.6c0 131.5-97.34 240-223.85 258.2" style="fill:#fff;fill-opacity:1;fill-rule:nonzero;stroke:none" transform="matrix(.13333 0 0 -.13333 0 2973.333)"/><path d="M4454.7 2578.6c-64.27 16.1-96.4-32.1-96.4-32.1 16.06 64.3 80.33 176.7 144.59 128.5 64.27-48.2 16.07-112.4-48.19-96.4zm852.54-1111.5c67.54 107.3 164.96 335.5 143.57 742-27.96 531.5-616.31 685.6-767.97 716.6-23.46 4.8-44.67 17.5-60.09 36l-107.16 128.5c-43.86 52.7-129.18 31-142.67-36.2l-26.99-135.7c-2.41-11.7-8.68-22.2-18-29.7-47.07-38.3-194.56-164.7-194.56-245.7v-2.9c-.48-66-23.3-129.8-62.82-182.7l-203.24-271c-55.75-74.1-35.99-180.1 42.74-229.3l107.16-67c73.58-45.9 170.46-25 218.66 47.1l57.04 85.6c10.28 15.5 28.11 23.3 46.43 21.6 183.96-18 296.74 129.3 338.19 196.6 9.16 15 31.17 13.2 37.76-2.9 25.55-61.7 43.06-197.3-180.26-350.2-213.94-146.4-269.99-332.1-284.42-430.2-105.28-33.7-181.55-132.2-181.55-248.7v-172.6h1462.03v172.6c0 131.5-97.34 240-223.85 258.2z" style="fill:none;stroke:#100f0d;stroke-width:48.19879913;stroke-linecap:butt;stroke-linejoin:miter;stroke-miterlimit:10;stroke-dasharray:none;stroke-opacity:1" transform="matrix(.13333 0 0 -.13333 0 2973.333)"/><path d="M15349.9 2276.34c-56.8 14.21-85.1-28.34-85.1-28.34 14.1 56.76 70.9 155.99 127.6 113.44s14.1-99.23-42.5-85.1m752.5-981.21c59.6 94.72 145.7 296.17 126.8 655.02-24.7 469.2-544.1 605.23-678 632.6-20.7 4.24-39.4 15.45-53 31.78l-94.7 113.44c-38.6 46.52-113.9 27.36-125.8-31.96l-23.9-119.79c-2.1-10.33-7.7-19.6-15.9-26.22-41.5-33.81-171.8-145.39-171.8-216.9v-2.56c-.4-58.26-20.5-114.59-55.4-161.28l-179.4-239.24c-49.2-65.41-31.8-158.99 37.7-202.42l94.7-59.15c64.9-40.51 150.4-22.07 192.9 41.58l50.4 75.57c9 13.68 24.8 20.57 41 19.07 162.4-15.89 261.9 114.14 298.6 173.55 8 13.25 27.5 11.66 33.2-2.56 22.6-54.47 38.1-174.17-159-309.15-189-129.24-238.4-293.17-251.1-379.77-93-29.75-160.3-116.7-160.3-219.55V914.825H16300v152.365c0 116.09-85.9 211.87-197.6 227.94" style="fill:#fff;fill-opacity:1;fill-rule:nonzero;stroke:none" transform="matrix(.15104 0 0 -.15104 0 2973.333)"/><path d="M15349.9 2276.34c-56.8 14.21-85.1-28.34-85.1-28.34 14.1 56.76 70.9 155.99 127.6 113.44s14.1-99.23-42.5-85.1zm752.5-981.21c59.6 94.72 145.7 296.17 126.8 655.02-24.7 469.2-544.1 605.23-678 632.6-20.7 4.24-39.4 15.45-53 31.78l-94.7 113.44c-38.6 46.52-113.9 27.36-125.8-31.96l-23.9-119.79c-2.1-10.33-7.7-19.6-15.9-26.22-41.5-33.81-171.8-145.39-171.8-216.9v-2.56c-.4-58.26-20.5-114.59-55.4-161.28l-179.4-239.24c-49.2-65.41-31.8-158.99 37.7-202.42l94.7-59.15c64.9-40.51 150.4-22.07 192.9 41.58l50.4 75.57c9 13.68 24.8 20.57 41 19.07 162.4-15.89 261.9 114.14 298.6 173.55 8 13.25 27.5 11.66 33.2-2.56 22.6-54.47 38.1-174.17-159-309.15-189-129.24-238.4-293.17-251.1-379.77-93-29.75-160.3-116.7-160.3-219.55V914.825H16300v152.365c0 116.09-85.9 211.87-197.6 227.94z" style="fill:none;stroke:#100f0d;stroke-width:42.5489006;stroke-linecap:butt;stroke-linejoin:miter;stroke-miterlimit:10;stroke-dasharray:none;stroke-opacity:1" transform="matrix(.15104 0 0 -.15104 0 2973.333)"/><path d="M7739.84 1470.1h-134.99c571.5 543.9 35.77 1158.4-68.89 1268.1-8.72 9.1-23.75 8.1-30.85-2.3-151.7-223.1-139.18-570.5-132.66-663.7.9-12.9-9.3-23.7-22.21-23.7h-163.3c-11.94 0-21.9 9.5-22.36 21.4-17.22 442 158.97 737.4 251.59 861 31.66 42.2 24.74 101.9-15.76 135.7-70.66 59.1-183.07 122.2-283.05 42.2-120.1-96.1-69.62-210.1-36.47-261.6 10.4-16.1 6.55-37.5-8.56-49.4-103.6-81.2-448.22-380.4-420.89-749.3 26.4-356.5 208.39-528.4 272.47-578.4h-123.77c-144.24 0-261.16-117-261.16-261.2v-172.6h1462.03v172.6c0 144.2-116.93 261.2-261.17 261.2" style="fill:#fff;fill-opacity:1;fill-rule:nonzero;stroke:none" transform="matrix(.13333 0 0 -.13333 0 2973.333)"/><path d="M7739.84 1470.1h-134.99c571.5 543.9 35.77 1158.4-68.89 1268.1-8.72 9.1-23.75 8.1-30.85-2.3-151.7-223.1-139.18-570.5-132.66-663.7.9-12.9-9.3-23.7-22.21-23.7h-163.3c-11.94 0-21.9 9.5-22.36 21.4-17.22 442 158.97 737.4 251.59 861 31.66 42.2 24.74 101.9-15.76 135.7-70.66 59.1-183.07 122.2-283.05 42.2-120.1-96.1-69.62-210.1-36.47-261.6 10.4-16.1 6.55-37.5-8.56-49.4-103.6-81.2-448.22-380.4-420.89-749.3 26.4-356.5 208.39-528.4 272.47-578.4h-123.77c-144.24 0-261.16-117-261.16-261.2v-172.6h1462.03v172.6c0 144.2-116.93 261.2-261.17 261.2z" style="fill:none;stroke:#100f0d;stroke-width:48.19879913;stroke-linecap:butt;stroke-linejoin:miter;stroke-miterlimit:10;stroke-dasharray:none;stroke-opacity:1" transform="matrix(.13333 0 0 -.13333 0 2973.333)"/><path d="M15499.9 1470.1h-135c571.5 543.9 35.7 1158.4-68.9 1268.1-8.7 9.1-23.8 8.1-30.9-2.3-151.7-223.1-139.2-570.5-132.6-663.7.9-12.9-9.3-23.7-22.2-23.7H14947c-12 0-21.9 9.5-22.4 21.4-17.2 442 159 737.4 251.6 861 31.6 42.2 24.7 101.9-15.8 135.7-70.6 59.1-183.1 122.2-283 42.2-120.1-96.1-69.6-210.1-36.5-261.6 10.4-16.1 6.6-37.5-8.6-49.4-103.6-81.2-448.2-380.4-420.8-749.3 26.4-356.5 208.3-528.4 272.4-578.4h-123.7c-144.3 0-261.2-117-261.2-261.2v-172.6h1462v172.6c0 144.2-116.9 261.2-261.1 261.2" style="fill:#fff;fill-opacity:1;fill-rule:nonzero;stroke:none" transform="matrix(.13333 0 0 -.13333 0 2973.333)"/><path d="M15499.9 1470.1h-135c571.5 543.9 35.7 1158.4-68.9 1268.1-8.7 9.1-23.8 8.1-30.9-2.3-151.7-223.1-139.2-570.5-132.6-663.7.9-12.9-9.3-23.7-22.2-23.7H14947c-12 0-21.9 9.5-22.4 21.4-17.2 442 159 737.4 251.6 861 31.6 42.2 24.7 101.9-15.8 135.7-70.6 59.1-183.1 122.2-283 42.2-120.1-96.1-69.6-210.1-36.5-261.6 10.4-16.1 6.6-37.5-8.6-49.4-103.6-81.2-448.2-380.4-420.8-749.3 26.4-356.5 208.3-528.4 272.4-578.4h-123.7c-144.3 0-261.2-117-261.2-261.2v-172.6h1462v172.6c0 144.2-116.9 261.2-261.1 261.2z" style="fill:none;stroke:#100f0d;stroke-width:48.19879913;stroke-linecap:butt;stroke-linejoin:miter;stroke-miterlimit:10;stroke-dasharray:none;stroke-opacity:1" transform="matrix(.13333 0 0 -.13333 0 2973.333)"/><path d="M10860.7 2473.8c-4.3 119.7-104.7 213.3-224.4 209.1s-213.3-104.7-209.1-224.4c1.2-35.8 11.3-69.2 27.7-98.5l-212.6-263.3v557.5c84.1 38 141.3 123.9 137.8 221.9-4.5 129.4-113.1 230.5-242.5 226-129.4-4.6-230.55-113.1-225.99-242.5 2.7-76.9 42.28-143.6 100.99-184.3l-67.57-207.3-88.37-271.3-88.36 271.3-67.53 207.3c58.67 40.7 98.25 107.4 100.95 184.3 4.56 129.4-96.63 237.9-226 242.5-129.38 4.5-237.95-96.6-242.5-226-3.45-98 53.75-183.9 137.85-221.9v-557.5L9258.39 2360c16.46 29.3 26.51 62.7 27.77 98.5 4.21 119.7-89.41 220.2-209.11 224.4-119.71 4.2-220.16-89.4-224.38-209.1-3.89-110.7 75.98-204.8 182.72-221.7l340.82-782.6c-139.29-5.6-250.56-119.9-250.56-260.6v-172.6h1462.05v172.6c0 140.7-111.3 255-250.6 260.6l340.8 782.6c106.8 16.9 186.7 111 182.8 221.7" style="fill:#fff;fill-opacity:1;fill-rule:nonzero;stroke:none" transform="matrix(.13333 0 0 -.13333 0 2973.333)"/><path d="M10860.7 2473.8c-4.3 119.7-104.7 213.3-224.4 209.1s-213.3-104.7-209.1-224.4c1.2-35.8 11.3-69.2 27.7-98.5l-212.6-263.3v557.5c84.1 38 141.3 123.9 137.8 221.9-4.5 129.4-113.1 230.5-242.5 226-129.4-4.6-230.55-113.1-225.99-242.5 2.7-76.9 42.28-143.6 100.99-184.3l-67.57-207.3-88.37-271.3-88.36 271.3-67.53 207.3c58.67 40.7 98.25 107.4 100.95 184.3 4.56 129.4-96.63 237.9-226 242.5-129.38 4.5-237.95-96.6-242.5-226-3.45-98 53.75-183.9 137.85-221.9v-557.5L9258.39 2360c16.46 29.3 26.51 62.7 27.77 98.5 4.21 119.7-89.41 220.2-209.11 224.4-119.71 4.2-220.16-89.4-224.38-209.1-3.89-110.7 75.98-204.8 182.72-221.7l340.82-782.6c-139.29-5.6-250.56-119.9-250.56-260.6v-172.6h1462.05v172.6c0 140.7-111.3 255-250.6 260.6l340.8 782.6c106.8 16.9 186.7 111 182.8 221.7z" style="fill:none;stroke:#100f0d;stroke-width:48.19879913;stroke-linecap:butt;stroke-linejoin:miter;stroke-miterlimit:10;stroke-dasharray:none;stroke-opacity:1" transform="matrix(.13333 0 0 -.13333 0 2973.333)"/><path d="M12001.5 2257.3c121.6 27 209-64.4 233.9-94.3 4.7-5.6 7.1-12.5 7.1-19.9v-331.5c0-11.2-9-20.2-20.2-20.2h-68.3c-25.2 0-49.2 11.6-65.1 31.3l-167.7 209.7c-64.3 80.3-64.3 192.8 80.3 224.9m642.7-114.2c0 7.4 2.4 14.3 7 19.9 24.9 29.9 112.3 121.3 234 94.3 144.6-32.1 144.6-144.6 80.3-224.9l-167.7-209.7c-15.9-19.7-39.9-31.3-65.1-31.3h-68.3c-11.2 0-20.2 9-20.2 20.2zm316.5-677.6c163.2 264.9 611.7 500.4 438.6 904.3-171.5 400.2-673.6 215.5-782.4 169.8l-10 167.6h120.6c11.6 0 21.1 9.4 21.1 21.1v230.9c0 11.6-9.5 21.1-21.1 21.1h-137l-9.4 156.9c-.7 11.1-9.9 19.8-21.1 19.8h-233.3c-11.2 0-20.4-8.7-21.1-19.8l-9.4-156.9h-137c-11.7 0-21.1-9.5-21.1-21.1v-230.9c0-11.7 9.4-21.1 21.1-21.1h120.6l-10.1-167.6c-108.8 45.7-610.8 230.4-782.3-169.8-173.1-403.9 275.3-639.4 438.6-904.3-121.5-22.3-213.7-128.6-213.7-256.6v-172.6h1462.1v172.6c0 128-92.2 234.3-213.7 256.6" style="fill:#fff;fill-opacity:1;fill-rule:nonzero;stroke:none" transform="matrix(.13333 0 0 -.13333 0 2973.333)"/><path d="M12001.5 2257.3c121.6 27 209-64.4 233.9-94.3 4.7-5.6 7.1-12.5 7.1-19.9v-331.5c0-11.2-9-20.2-20.2-20.2h-68.3c-25.2 0-49.2 11.6-65.1 31.3l-167.7 209.7c-64.3 80.3-64.3 192.8 80.3 224.9zm642.7-114.2c0 7.4 2.4 14.3 7 19.9 24.9 29.9 112.3 121.3 234 94.3 144.6-32.1 144.6-144.6 80.3-224.9l-167.7-209.7c-15.9-19.7-39.9-31.3-65.1-31.3h-68.3c-11.2 0-20.2 9-20.2 20.2zm316.5-677.6c163.2 264.9 611.7 500.4 438.6 904.3-171.5 400.2-673.6 215.5-782.4 169.8l-10 167.6h120.6c11.6 0 21.1 9.4 21.1 21.1v230.9c0 11.6-9.5 21.1-21.1 21.1h-137l-9.4 156.9c-.7 11.1-9.9 19.8-21.1 19.8h-233.3c-11.2 0-20.4-8.7-21.1-19.8l-9.4-156.9h-137c-11.7 0-21.1-9.5-21.1-21.1v-230.9c0-11.7 9.4-21.1 21.1-21.1h120.6l-10.1-167.6c-108.8 45.7-610.8 230.4-782.3-169.8-173.1-403.9 275.3-639.4 438.6-904.3-121.5-22.3-213.7-128.6-213.7-256.6v-172.6h1462.1v172.6c0 128-92.2 234.3-213.7 256.6z" style="fill:none;stroke:#100f0d;stroke-width:48.19879913;stroke-linecap:butt;stroke-linejoin:miter;stroke-miterlimit:10;stroke-dasharray:none;stroke-opacity:1" transform="matrix(.13333 0 0 -.13333 0 2973.333)"/></svg>